<?xml version="1.0" encoding="utf-8" standalone="no"?>
<!DOCTYPE svg PUBLIC "-//W3C//DTD SVG 1.1//EN"
  "http://www.w3.org/Graphics/SVG/1.1/DTD/svg11.dtd">
<svg xmlns:xlink="http://www.w3.org/1999/xlink" width="508.860995pt" height="694.886437pt" viewBox="0 0 508.860995 694.886437" xmlns="http://www.w3.org/2000/svg" version="1.1">
 <metadata>
  <rdf:RDF xmlns:dc="http://purl.org/dc/elements/1.1/" xmlns:cc="http://creativecommons.org/ns#" xmlns:rdf="http://www.w3.org/1999/02/22-rdf-syntax-ns#">
   <cc:Work>
    <dc:type rdf:resource="http://purl.org/dc/dcmitype/StillImage"/>
    <dc:format>image/svg+xml</dc:format>
    <dc:creator>
     <cc:Agent>
      <dc:title>fcmaes-tutorial-plots</dc:title>
     </cc:Agent>
    </dc:creator>
   </cc:Work>
  </rdf:RDF>
 </metadata>
 <defs>
  <style type="text/css">*{stroke-linejoin: round; stroke-linecap: butt}</style>
 </defs>
 <g id="figure_1">
  <g id="patch_1">
   <path d="M 0 694.886437 
L 508.860995 694.886437 
L 508.860995 0 
L 0 0 
z
" style="fill: #ffffff"/>
  </g>
  <g id="axes_1">
   <g id="patch_2">
    <path d="M 53.650781 170.991161 
L 501.660995 170.991161 
L 501.660995 26.688 
L 53.650781 26.688 
z
" style="fill: #ffffff"/>
   </g>
   <g id="matplotlib.axis_1">
    <g id="xtick_1">
     <g id="line2d_1">
      <path d="M 73.493394 170.991161 
L 73.493394 26.688 
" clip-path="url(#p9eaa8fe677)" style="fill: none; stroke: #b0b0b0; stroke-opacity: 0.22; stroke-width: 0.8; stroke-linecap: square"/>
     </g>
     <g id="line2d_2">
      <defs>
       <path id="m33ca78faab" d="M 0 0 
L 0 3.5 
" style="stroke: #000000; stroke-width: 0.8"/>
      </defs>
      <g>
       <use xlink:href="#m33ca78faab" x="73.493394" y="170.991161" style="stroke: #000000; stroke-width: 0.8"/>
      </g>
     </g>
    </g>
    <g id="xtick_2">
     <g id="line2d_3">
      <path d="M 124.419942 170.991161 
L 124.419942 26.688 
" clip-path="url(#p9eaa8fe677)" style="fill: none; stroke: #b0b0b0; stroke-opacity: 0.22; stroke-width: 0.8; stroke-linecap: square"/>
     </g>
     <g id="line2d_4">
      <g>
       <use xlink:href="#m33ca78faab" x="124.419942" y="170.991161" style="stroke: #000000; stroke-width: 0.8"/>
      </g>
     </g>
    </g>
    <g id="xtick_3">
     <g id="line2d_5">
      <path d="M 175.34649 170.991161 
L 175.34649 26.688 
" clip-path="url(#p9eaa8fe677)" style="fill: none; stroke: #b0b0b0; stroke-opacity: 0.22; stroke-width: 0.8; stroke-linecap: square"/>
     </g>
     <g id="line2d_6">
      <g>
       <use xlink:href="#m33ca78faab" x="175.34649" y="170.991161" style="stroke: #000000; stroke-width: 0.8"/>
      </g>
     </g>
    </g>
    <g id="xtick_4">
     <g id="line2d_7">
      <path d="M 226.273038 170.991161 
L 226.273038 26.688 
" clip-path="url(#p9eaa8fe677)" style="fill: none; stroke: #b0b0b0; stroke-opacity: 0.22; stroke-width: 0.8; stroke-linecap: square"/>
     </g>
     <g id="line2d_8">
      <g>
       <use xlink:href="#m33ca78faab" x="226.273038" y="170.991161" style="stroke: #000000; stroke-width: 0.8"/>
      </g>
     </g>
    </g>
    <g id="xtick_5">
     <g id="line2d_9">
      <path d="M 277.199586 170.991161 
L 277.199586 26.688 
" clip-path="url(#p9eaa8fe677)" style="fill: none; stroke: #b0b0b0; stroke-opacity: 0.22; stroke-width: 0.8; stroke-linecap: square"/>
     </g>
     <g id="line2d_10">
      <g>
       <use xlink:href="#m33ca78faab" x="277.199586" y="170.991161" style="stroke: #000000; stroke-width: 0.8"/>
      </g>
     </g>
    </g>
    <g id="xtick_6">
     <g id="line2d_11">
      <path d="M 328.126134 170.991161 
L 328.126134 26.688 
" clip-path="url(#p9eaa8fe677)" style="fill: none; stroke: #b0b0b0; stroke-opacity: 0.22; stroke-width: 0.8; stroke-linecap: square"/>
     </g>
     <g id="line2d_12">
      <g>
       <use xlink:href="#m33ca78faab" x="328.126134" y="170.991161" style="stroke: #000000; stroke-width: 0.8"/>
      </g>
     </g>
    </g>
    <g id="xtick_7">
     <g id="line2d_13">
      <path d="M 379.052682 170.991161 
L 379.052682 26.688 
" clip-path="url(#p9eaa8fe677)" style="fill: none; stroke: #b0b0b0; stroke-opacity: 0.22; stroke-width: 0.8; stroke-linecap: square"/>
     </g>
     <g id="line2d_14">
      <g>
       <use xlink:href="#m33ca78faab" x="379.052682" y="170.991161" style="stroke: #000000; stroke-width: 0.8"/>
      </g>
     </g>
    </g>
    <g id="xtick_8">
     <g id="line2d_15">
      <path d="M 429.97923 170.991161 
L 429.97923 26.688 
" clip-path="url(#p9eaa8fe677)" style="fill: none; stroke: #b0b0b0; stroke-opacity: 0.22; stroke-width: 0.8; stroke-linecap: square"/>
     </g>
     <g id="line2d_16">
      <g>
       <use xlink:href="#m33ca78faab" x="429.97923" y="170.991161" style="stroke: #000000; stroke-width: 0.8"/>
      </g>
     </g>
    </g>
    <g id="xtick_9">
     <g id="line2d_17">
      <path d="M 480.905778 170.991161 
L 480.905778 26.688 
" clip-path="url(#p9eaa8fe677)" style="fill: none; stroke: #b0b0b0; stroke-opacity: 0.22; stroke-width: 0.8; stroke-linecap: square"/>
     </g>
     <g id="line2d_18">
      <g>
       <use xlink:href="#m33ca78faab" x="480.905778" y="170.991161" style="stroke: #000000; stroke-width: 0.8"/>
      </g>
     </g>
    </g>
   </g>
   <g id="matplotlib.axis_2">
    <g id="ytick_1">
     <g id="line2d_19">
      <path d="M 53.650781 144.893781 
L 501.660995 144.893781 
" clip-path="url(#p9eaa8fe677)" style="fill: none; stroke: #b0b0b0; stroke-opacity: 0.22; stroke-width: 0.8; stroke-linecap: square"/>
     </g>
     <g id="line2d_20">
      <defs>
       <path id="ma3802a4e71" d="M 0 0 
L -3.5 0 
" style="stroke: #000000; stroke-width: 0.8"/>
      </defs>
      <g>
       <use xlink:href="#ma3802a4e71" x="53.650781" y="144.893781" style="stroke: #000000; stroke-width: 0.8"/>
      </g>
     </g>
     <g id="text_1">
      <!-- 0.1 -->
      <g transform="translate(30.747656 148.692609) scale(0.1 -0.1)">
       <defs>
        <path id="DejaVuSans-13" d="M 2034 4250 
Q 1547 4250 1301 3770 
Q 1056 3291 1056 2328 
Q 1056 1369 1301 889 
Q 1547 409 2034 409 
Q 2525 409 2770 889 
Q 3016 1369 3016 2328 
Q 3016 3291 2770 3770 
Q 2525 4250 2034 4250 
z
M 2034 4750 
Q 2819 4750 3233 4129 
Q 3647 3509 3647 2328 
Q 3647 1150 3233 529 
Q 2819 -91 2034 -91 
Q 1250 -91 836 529 
Q 422 1150 422 2328 
Q 422 3509 836 4129 
Q 1250 4750 2034 4750 
z
" transform="scale(0.015625)"/>
        <path id="DejaVuSans-11" d="M 684 794 
L 1344 794 
L 1344 0 
L 684 0 
L 684 794 
z
" transform="scale(0.015625)"/>
        <path id="DejaVuSans-14" d="M 794 531 
L 1825 531 
L 1825 4091 
L 703 3866 
L 703 4441 
L 1819 4666 
L 2450 4666 
L 2450 531 
L 3481 531 
L 3481 0 
L 794 0 
L 794 531 
z
" transform="scale(0.015625)"/>
       </defs>
       <use xlink:href="#DejaVuSans-13"/>
       <use xlink:href="#DejaVuSans-11" transform="translate(63.625 0)"/>
       <use xlink:href="#DejaVuSans-14" transform="translate(95.40625 0)"/>
      </g>
     </g>
    </g>
    <g id="ytick_2">
     <g id="line2d_21">
      <path d="M 53.650781 107.678265 
L 501.660995 107.678265 
" clip-path="url(#p9eaa8fe677)" style="fill: none; stroke: #b0b0b0; stroke-opacity: 0.22; stroke-width: 0.8; stroke-linecap: square"/>
     </g>
     <g id="line2d_22">
      <g>
       <use xlink:href="#ma3802a4e71" x="53.650781" y="107.678265" style="stroke: #000000; stroke-width: 0.8"/>
      </g>
     </g>
     <g id="text_2">
      <!-- 0.2 -->
      <g transform="translate(30.747656 111.477093) scale(0.1 -0.1)">
       <defs>
        <path id="DejaVuSans-15" d="M 1228 531 
L 3431 531 
L 3431 0 
L 469 0 
L 469 531 
Q 828 903 1448 1529 
Q 2069 2156 2228 2338 
Q 2531 2678 2651 2914 
Q 2772 3150 2772 3378 
Q 2772 3750 2511 3984 
Q 2250 4219 1831 4219 
Q 1534 4219 1204 4116 
Q 875 4013 500 3803 
L 500 4441 
Q 881 4594 1212 4672 
Q 1544 4750 1819 4750 
Q 2544 4750 2975 4387 
Q 3406 4025 3406 3419 
Q 3406 3131 3298 2873 
Q 3191 2616 2906 2266 
Q 2828 2175 2409 1742 
Q 1991 1309 1228 531 
z
" transform="scale(0.015625)"/>
       </defs>
       <use xlink:href="#DejaVuSans-13"/>
       <use xlink:href="#DejaVuSans-11" transform="translate(63.625 0)"/>
       <use xlink:href="#DejaVuSans-15" transform="translate(95.40625 0)"/>
      </g>
     </g>
    </g>
    <g id="ytick_3">
     <g id="line2d_23">
      <path d="M 53.650781 70.46275 
L 501.660995 70.46275 
" clip-path="url(#p9eaa8fe677)" style="fill: none; stroke: #b0b0b0; stroke-opacity: 0.22; stroke-width: 0.8; stroke-linecap: square"/>
     </g>
     <g id="line2d_24">
      <g>
       <use xlink:href="#ma3802a4e71" x="53.650781" y="70.46275" style="stroke: #000000; stroke-width: 0.8"/>
      </g>
     </g>
     <g id="text_3">
      <!-- 0.3 -->
      <g transform="translate(30.747656 74.261578) scale(0.1 -0.1)">
       <defs>
        <path id="DejaVuSans-16" d="M 2597 2516 
Q 3050 2419 3304 2112 
Q 3559 1806 3559 1356 
Q 3559 666 3084 287 
Q 2609 -91 1734 -91 
Q 1441 -91 1130 -33 
Q 819 25 488 141 
L 488 750 
Q 750 597 1062 519 
Q 1375 441 1716 441 
Q 2309 441 2620 675 
Q 2931 909 2931 1356 
Q 2931 1769 2642 2001 
Q 2353 2234 1838 2234 
L 1294 2234 
L 1294 2753 
L 1863 2753 
Q 2328 2753 2575 2939 
Q 2822 3125 2822 3475 
Q 2822 3834 2567 4026 
Q 2313 4219 1838 4219 
Q 1578 4219 1281 4162 
Q 984 4106 628 3988 
L 628 4550 
Q 988 4650 1302 4700 
Q 1616 4750 1894 4750 
Q 2613 4750 3031 4423 
Q 3450 4097 3450 3541 
Q 3450 3153 3228 2886 
Q 3006 2619 2597 2516 
z
" transform="scale(0.015625)"/>
       </defs>
       <use xlink:href="#DejaVuSans-13"/>
       <use xlink:href="#DejaVuSans-11" transform="translate(63.625 0)"/>
       <use xlink:href="#DejaVuSans-16" transform="translate(95.40625 0)"/>
      </g>
     </g>
    </g>
    <g id="ytick_4">
     <g id="line2d_25">
      <path d="M 53.650781 33.247235 
L 501.660995 33.247235 
" clip-path="url(#p9eaa8fe677)" style="fill: none; stroke: #b0b0b0; stroke-opacity: 0.22; stroke-width: 0.8; stroke-linecap: square"/>
     </g>
     <g id="line2d_26">
      <g>
       <use xlink:href="#ma3802a4e71" x="53.650781" y="33.247235" style="stroke: #000000; stroke-width: 0.8"/>
      </g>
     </g>
     <g id="text_4">
      <!-- 0.4 -->
      <g transform="translate(30.747656 37.046063) scale(0.1 -0.1)">
       <defs>
        <path id="DejaVuSans-17" d="M 2419 4116 
L 825 1625 
L 2419 1625 
L 2419 4116 
z
M 2253 4666 
L 3047 4666 
L 3047 1625 
L 3713 1625 
L 3713 1100 
L 3047 1100 
L 3047 0 
L 2419 0 
L 2419 1100 
L 313 1100 
L 313 1709 
L 2253 4666 
z
" transform="scale(0.015625)"/>
       </defs>
       <use xlink:href="#DejaVuSans-13"/>
       <use xlink:href="#DejaVuSans-11" transform="translate(63.625 0)"/>
       <use xlink:href="#DejaVuSans-17" transform="translate(95.40625 0)"/>
      </g>
     </g>
    </g>
    <g id="text_5">
     <!-- Coverage -->
     <g transform="translate(24.345313 122.796612) rotate(-90) scale(0.1 -0.1)">
      <defs>
       <path id="DejaVuSans-26" d="M 4122 4306 
L 4122 3641 
Q 3803 3938 3442 4084 
Q 3081 4231 2675 4231 
Q 1875 4231 1450 3742 
Q 1025 3253 1025 2328 
Q 1025 1406 1450 917 
Q 1875 428 2675 428 
Q 3081 428 3442 575 
Q 3803 722 4122 1019 
L 4122 359 
Q 3791 134 3420 21 
Q 3050 -91 2638 -91 
Q 1578 -91 968 557 
Q 359 1206 359 2328 
Q 359 3453 968 4101 
Q 1578 4750 2638 4750 
Q 3056 4750 3426 4639 
Q 3797 4528 4122 4306 
z
" transform="scale(0.015625)"/>
       <path id="DejaVuSans-52" d="M 1959 3097 
Q 1497 3097 1228 2736 
Q 959 2375 959 1747 
Q 959 1119 1226 758 
Q 1494 397 1959 397 
Q 2419 397 2687 759 
Q 2956 1122 2956 1747 
Q 2956 2369 2687 2733 
Q 2419 3097 1959 3097 
z
M 1959 3584 
Q 2709 3584 3137 3096 
Q 3566 2609 3566 1747 
Q 3566 888 3137 398 
Q 2709 -91 1959 -91 
Q 1206 -91 779 398 
Q 353 888 353 1747 
Q 353 2609 779 3096 
Q 1206 3584 1959 3584 
z
" transform="scale(0.015625)"/>
       <path id="DejaVuSans-59" d="M 191 3500 
L 800 3500 
L 1894 563 
L 2988 3500 
L 3597 3500 
L 2284 0 
L 1503 0 
L 191 3500 
z
" transform="scale(0.015625)"/>
       <path id="DejaVuSans-48" d="M 3597 1894 
L 3597 1613 
L 953 1613 
Q 991 1019 1311 708 
Q 1631 397 2203 397 
Q 2534 397 2845 478 
Q 3156 559 3463 722 
L 3463 178 
Q 3153 47 2828 -22 
Q 2503 -91 2169 -91 
Q 1331 -91 842 396 
Q 353 884 353 1716 
Q 353 2575 817 3079 
Q 1281 3584 2069 3584 
Q 2775 3584 3186 3129 
Q 3597 2675 3597 1894 
z
M 3022 2063 
Q 3016 2534 2758 2815 
Q 2500 3097 2075 3097 
Q 1594 3097 1305 2825 
Q 1016 2553 972 2059 
L 3022 2063 
z
" transform="scale(0.015625)"/>
       <path id="DejaVuSans-55" d="M 2631 2963 
Q 2534 3019 2420 3045 
Q 2306 3072 2169 3072 
Q 1681 3072 1420 2755 
Q 1159 2438 1159 1844 
L 1159 0 
L 581 0 
L 581 3500 
L 1159 3500 
L 1159 2956 
Q 1341 3275 1631 3429 
Q 1922 3584 2338 3584 
Q 2397 3584 2469 3576 
Q 2541 3569 2628 3553 
L 2631 2963 
z
" transform="scale(0.015625)"/>
       <path id="DejaVuSans-44" d="M 2194 1759 
Q 1497 1759 1228 1600 
Q 959 1441 959 1056 
Q 959 750 1161 570 
Q 1363 391 1709 391 
Q 2188 391 2477 730 
Q 2766 1069 2766 1631 
L 2766 1759 
L 2194 1759 
z
M 3341 1997 
L 3341 0 
L 2766 0 
L 2766 531 
Q 2569 213 2275 61 
Q 1981 -91 1556 -91 
Q 1019 -91 701 211 
Q 384 513 384 1019 
Q 384 1609 779 1909 
Q 1175 2209 1959 2209 
L 2766 2209 
L 2766 2266 
Q 2766 2663 2505 2880 
Q 2244 3097 1772 3097 
Q 1472 3097 1187 3025 
Q 903 2953 641 2809 
L 641 3341 
Q 956 3463 1253 3523 
Q 1550 3584 1831 3584 
Q 2591 3584 2966 3190 
Q 3341 2797 3341 1997 
z
" transform="scale(0.015625)"/>
       <path id="DejaVuSans-4a" d="M 2906 1791 
Q 2906 2416 2648 2759 
Q 2391 3103 1925 3103 
Q 1463 3103 1205 2759 
Q 947 2416 947 1791 
Q 947 1169 1205 825 
Q 1463 481 1925 481 
Q 2391 481 2648 825 
Q 2906 1169 2906 1791 
z
M 3481 434 
Q 3481 -459 3084 -895 
Q 2688 -1331 1869 -1331 
Q 1566 -1331 1297 -1286 
Q 1028 -1241 775 -1147 
L 775 -588 
Q 1028 -725 1275 -790 
Q 1522 -856 1778 -856 
Q 2344 -856 2625 -561 
Q 2906 -266 2906 331 
L 2906 616 
Q 2728 306 2450 153 
Q 2172 0 1784 0 
Q 1141 0 747 490 
Q 353 981 353 1791 
Q 353 2603 747 3093 
Q 1141 3584 1784 3584 
Q 2172 3584 2450 3431 
Q 2728 3278 2906 2969 
L 2906 3500 
L 3481 3500 
L 3481 434 
z
" transform="scale(0.015625)"/>
      </defs>
      <use xlink:href="#DejaVuSans-26"/>
      <use xlink:href="#DejaVuSans-52" transform="translate(69.828125 0)"/>
      <use xlink:href="#DejaVuSans-59" transform="translate(131.015625 0)"/>
      <use xlink:href="#DejaVuSans-48" transform="translate(190.203125 0)"/>
      <use xlink:href="#DejaVuSans-55" transform="translate(251.734375 0)"/>
      <use xlink:href="#DejaVuSans-44" transform="translate(292.84375 0)"/>
      <use xlink:href="#DejaVuSans-4a" transform="translate(354.125 0)"/>
      <use xlink:href="#DejaVuSans-48" transform="translate(417.609375 0)"/>
     </g>
    </g>
   </g>
   <g id="line2d_27">
    <path d="M 74.014882 164.431926 
L 75.057858 142.102617 
L 76.622321 108.608653 
L 77.143809 103.026326 
L 77.665297 100.235162 
L 78.186785 92.792059 
L 78.708273 91.861671 
L 79.751248 83.48818 
L 80.272736 81.627404 
L 80.794224 77.905853 
L 81.315712 76.045077 
L 81.8372 75.114689 
L 82.358687 73.253914 
L 82.880175 72.323526 
L 83.401663 72.323526 
L 84.444639 68.601974 
L 85.487615 66.741198 
L 86.009102 63.950035 
L 88.095054 63.950035 
L 88.616542 63.019647 
L 89.13803 61.158871 
L 89.659517 61.158871 
L 90.181005 59.298095 
L 91.223981 57.43732 
L 91.745469 57.43732 
L 92.266957 55.576544 
L 93.83142 55.576544 
L 94.352908 54.646156 
L 95.917372 54.646156 
L 96.438859 53.715768 
L 96.960347 51.854992 
L 99.567787 51.854992 
L 100.089274 50.924604 
L 105.825641 50.924604 
L 106.347129 49.994216 
L 106.868617 49.994216 
L 107.390104 49.063829 
L 113.647959 49.063829 
L 114.690934 47.203053 
L 115.73391 47.203053 
L 116.255398 46.272665 
L 117.819861 46.272665 
L 118.341349 45.342277 
L 123.03474 45.342277 
L 123.556228 44.411889 
L 124.077716 44.411889 
L 124.599204 43.481501 
L 128.771106 43.481501 
L 129.292594 42.551113 
L 149.109133 42.551113 
L 149.63062 41.620726 
L 187.699234 41.620726 
L 188.220721 40.690338 
L 257.057118 40.690338 
L 257.578606 39.75995 
L 273.744729 39.75995 
L 274.266217 37.899174 
L 287.303413 37.899174 
L 287.824901 36.968786 
L 310.248879 36.968786 
L 310.770367 36.038398 
L 323.807563 36.038398 
L 324.329051 35.10801 
L 355.096834 35.10801 
L 355.618322 34.177622 
L 480.775406 34.177622 
L 481.296894 33.247235 
L 481.296894 33.247235 
" clip-path="url(#p9eaa8fe677)" style="fill: none; stroke: #1f77b4; stroke-width: 1.8; stroke-linecap: square"/>
   </g>
   <g id="patch_3">
    <path d="M 53.650781 170.991161 
L 53.650781 26.688 
" style="fill: none; stroke: #000000; stroke-width: 0.8; stroke-linejoin: miter; stroke-linecap: square"/>
   </g>
   <g id="patch_4">
    <path d="M 501.660995 170.991161 
L 501.660995 26.688 
" style="fill: none; stroke: #000000; stroke-width: 0.8; stroke-linejoin: miter; stroke-linecap: square"/>
   </g>
   <g id="patch_5">
    <path d="M 53.650781 170.991161 
L 501.660995 170.991161 
" style="fill: none; stroke: #000000; stroke-width: 0.8; stroke-linejoin: miter; stroke-linecap: square"/>
   </g>
   <g id="patch_6">
    <path d="M 53.650781 26.688 
L 501.660995 26.688 
" style="fill: none; stroke: #000000; stroke-width: 0.8; stroke-linejoin: miter; stroke-linecap: square"/>
   </g>
  </g>
  <g id="axes_2">
   <g id="patch_7">
    <path d="M 53.650781 332.889326 
L 501.660995 332.889326 
L 501.660995 188.586165 
L 53.650781 188.586165 
z
" style="fill: #ffffff"/>
   </g>
   <g id="matplotlib.axis_3">
    <g id="xtick_10">
     <g id="line2d_28">
      <path d="M 73.493394 332.889326 
L 73.493394 188.586165 
" clip-path="url(#pa615d7b844)" style="fill: none; stroke: #b0b0b0; stroke-opacity: 0.22; stroke-width: 0.8; stroke-linecap: square"/>
     </g>
     <g id="line2d_29">
      <g>
       <use xlink:href="#m33ca78faab" x="73.493394" y="332.889326" style="stroke: #000000; stroke-width: 0.8"/>
      </g>
     </g>
    </g>
    <g id="xtick_11">
     <g id="line2d_30">
      <path d="M 124.419942 332.889326 
L 124.419942 188.586165 
" clip-path="url(#pa615d7b844)" style="fill: none; stroke: #b0b0b0; stroke-opacity: 0.22; stroke-width: 0.8; stroke-linecap: square"/>
     </g>
     <g id="line2d_31">
      <g>
       <use xlink:href="#m33ca78faab" x="124.419942" y="332.889326" style="stroke: #000000; stroke-width: 0.8"/>
      </g>
     </g>
    </g>
    <g id="xtick_12">
     <g id="line2d_32">
      <path d="M 175.34649 332.889326 
L 175.34649 188.586165 
" clip-path="url(#pa615d7b844)" style="fill: none; stroke: #b0b0b0; stroke-opacity: 0.22; stroke-width: 0.8; stroke-linecap: square"/>
     </g>
     <g id="line2d_33">
      <g>
       <use xlink:href="#m33ca78faab" x="175.34649" y="332.889326" style="stroke: #000000; stroke-width: 0.8"/>
      </g>
     </g>
    </g>
    <g id="xtick_13">
     <g id="line2d_34">
      <path d="M 226.273038 332.889326 
L 226.273038 188.586165 
" clip-path="url(#pa615d7b844)" style="fill: none; stroke: #b0b0b0; stroke-opacity: 0.22; stroke-width: 0.8; stroke-linecap: square"/>
     </g>
     <g id="line2d_35">
      <g>
       <use xlink:href="#m33ca78faab" x="226.273038" y="332.889326" style="stroke: #000000; stroke-width: 0.8"/>
      </g>
     </g>
    </g>
    <g id="xtick_14">
     <g id="line2d_36">
      <path d="M 277.199586 332.889326 
L 277.199586 188.586165 
" clip-path="url(#pa615d7b844)" style="fill: none; stroke: #b0b0b0; stroke-opacity: 0.22; stroke-width: 0.8; stroke-linecap: square"/>
     </g>
     <g id="line2d_37">
      <g>
       <use xlink:href="#m33ca78faab" x="277.199586" y="332.889326" style="stroke: #000000; stroke-width: 0.8"/>
      </g>
     </g>
    </g>
    <g id="xtick_15">
     <g id="line2d_38">
      <path d="M 328.126134 332.889326 
L 328.126134 188.586165 
" clip-path="url(#pa615d7b844)" style="fill: none; stroke: #b0b0b0; stroke-opacity: 0.22; stroke-width: 0.8; stroke-linecap: square"/>
     </g>
     <g id="line2d_39">
      <g>
       <use xlink:href="#m33ca78faab" x="328.126134" y="332.889326" style="stroke: #000000; stroke-width: 0.8"/>
      </g>
     </g>
    </g>
    <g id="xtick_16">
     <g id="line2d_40">
      <path d="M 379.052682 332.889326 
L 379.052682 188.586165 
" clip-path="url(#pa615d7b844)" style="fill: none; stroke: #b0b0b0; stroke-opacity: 0.22; stroke-width: 0.8; stroke-linecap: square"/>
     </g>
     <g id="line2d_41">
      <g>
       <use xlink:href="#m33ca78faab" x="379.052682" y="332.889326" style="stroke: #000000; stroke-width: 0.8"/>
      </g>
     </g>
    </g>
    <g id="xtick_17">
     <g id="line2d_42">
      <path d="M 429.97923 332.889326 
L 429.97923 188.586165 
" clip-path="url(#pa615d7b844)" style="fill: none; stroke: #b0b0b0; stroke-opacity: 0.22; stroke-width: 0.8; stroke-linecap: square"/>
     </g>
     <g id="line2d_43">
      <g>
       <use xlink:href="#m33ca78faab" x="429.97923" y="332.889326" style="stroke: #000000; stroke-width: 0.8"/>
      </g>
     </g>
    </g>
    <g id="xtick_18">
     <g id="line2d_44">
      <path d="M 480.905778 332.889326 
L 480.905778 188.586165 
" clip-path="url(#pa615d7b844)" style="fill: none; stroke: #b0b0b0; stroke-opacity: 0.22; stroke-width: 0.8; stroke-linecap: square"/>
     </g>
     <g id="line2d_45">
      <g>
       <use xlink:href="#m33ca78faab" x="480.905778" y="332.889326" style="stroke: #000000; stroke-width: 0.8"/>
      </g>
     </g>
    </g>
   </g>
   <g id="matplotlib.axis_4">
    <g id="ytick_5">
     <g id="line2d_46">
      <path d="M 53.650781 329.019794 
L 501.660995 329.019794 
" clip-path="url(#pa615d7b844)" style="fill: none; stroke: #b0b0b0; stroke-opacity: 0.22; stroke-width: 0.8; stroke-linecap: square"/>
     </g>
     <g id="line2d_47">
      <g>
       <use xlink:href="#ma3802a4e71" x="53.650781" y="329.019794" style="stroke: #000000; stroke-width: 0.8"/>
      </g>
     </g>
     <g id="text_6">
      <!-- 0 -->
      <g transform="translate(40.288281 332.818623) scale(0.1 -0.1)">
       <use xlink:href="#DejaVuSans-13"/>
      </g>
     </g>
    </g>
    <g id="ytick_6">
     <g id="line2d_48">
      <path d="M 53.650781 301.056178 
L 501.660995 301.056178 
" clip-path="url(#pa615d7b844)" style="fill: none; stroke: #b0b0b0; stroke-opacity: 0.22; stroke-width: 0.8; stroke-linecap: square"/>
     </g>
     <g id="line2d_49">
      <g>
       <use xlink:href="#ma3802a4e71" x="53.650781" y="301.056178" style="stroke: #000000; stroke-width: 0.8"/>
      </g>
     </g>
     <g id="text_7">
      <!-- 200 -->
      <g transform="translate(27.563281 304.855007) scale(0.1 -0.1)">
       <use xlink:href="#DejaVuSans-15"/>
       <use xlink:href="#DejaVuSans-13" transform="translate(63.625 0)"/>
       <use xlink:href="#DejaVuSans-13" transform="translate(127.25 0)"/>
      </g>
     </g>
    </g>
    <g id="ytick_7">
     <g id="line2d_50">
      <path d="M 53.650781 273.092562 
L 501.660995 273.092562 
" clip-path="url(#pa615d7b844)" style="fill: none; stroke: #b0b0b0; stroke-opacity: 0.22; stroke-width: 0.8; stroke-linecap: square"/>
     </g>
     <g id="line2d_51">
      <g>
       <use xlink:href="#ma3802a4e71" x="53.650781" y="273.092562" style="stroke: #000000; stroke-width: 0.8"/>
      </g>
     </g>
     <g id="text_8">
      <!-- 400 -->
      <g transform="translate(27.563281 276.891391) scale(0.1 -0.1)">
       <use xlink:href="#DejaVuSans-17"/>
       <use xlink:href="#DejaVuSans-13" transform="translate(63.625 0)"/>
       <use xlink:href="#DejaVuSans-13" transform="translate(127.25 0)"/>
      </g>
     </g>
    </g>
    <g id="ytick_8">
     <g id="line2d_52">
      <path d="M 53.650781 245.128946 
L 501.660995 245.128946 
" clip-path="url(#pa615d7b844)" style="fill: none; stroke: #b0b0b0; stroke-opacity: 0.22; stroke-width: 0.8; stroke-linecap: square"/>
     </g>
     <g id="line2d_53">
      <g>
       <use xlink:href="#ma3802a4e71" x="53.650781" y="245.128946" style="stroke: #000000; stroke-width: 0.8"/>
      </g>
     </g>
     <g id="text_9">
      <!-- 600 -->
      <g transform="translate(27.563281 248.927775) scale(0.1 -0.1)">
       <defs>
        <path id="DejaVuSans-19" d="M 2113 2584 
Q 1688 2584 1439 2293 
Q 1191 2003 1191 1497 
Q 1191 994 1439 701 
Q 1688 409 2113 409 
Q 2538 409 2786 701 
Q 3034 994 3034 1497 
Q 3034 2003 2786 2293 
Q 2538 2584 2113 2584 
z
M 3366 4563 
L 3366 3988 
Q 3128 4100 2886 4159 
Q 2644 4219 2406 4219 
Q 1781 4219 1451 3797 
Q 1122 3375 1075 2522 
Q 1259 2794 1537 2939 
Q 1816 3084 2150 3084 
Q 2853 3084 3261 2657 
Q 3669 2231 3669 1497 
Q 3669 778 3244 343 
Q 2819 -91 2113 -91 
Q 1303 -91 875 529 
Q 447 1150 447 2328 
Q 447 3434 972 4092 
Q 1497 4750 2381 4750 
Q 2619 4750 2861 4703 
Q 3103 4656 3366 4563 
z
" transform="scale(0.015625)"/>
       </defs>
       <use xlink:href="#DejaVuSans-19"/>
       <use xlink:href="#DejaVuSans-13" transform="translate(63.625 0)"/>
       <use xlink:href="#DejaVuSans-13" transform="translate(127.25 0)"/>
      </g>
     </g>
    </g>
    <g id="ytick_9">
     <g id="line2d_54">
      <path d="M 53.650781 217.16533 
L 501.660995 217.16533 
" clip-path="url(#pa615d7b844)" style="fill: none; stroke: #b0b0b0; stroke-opacity: 0.22; stroke-width: 0.8; stroke-linecap: square"/>
     </g>
     <g id="line2d_55">
      <g>
       <use xlink:href="#ma3802a4e71" x="53.650781" y="217.16533" style="stroke: #000000; stroke-width: 0.8"/>
      </g>
     </g>
     <g id="text_10">
      <!-- 800 -->
      <g transform="translate(27.563281 220.964159) scale(0.1 -0.1)">
       <defs>
        <path id="DejaVuSans-1b" d="M 2034 2216 
Q 1584 2216 1326 1975 
Q 1069 1734 1069 1313 
Q 1069 891 1326 650 
Q 1584 409 2034 409 
Q 2484 409 2743 651 
Q 3003 894 3003 1313 
Q 3003 1734 2745 1975 
Q 2488 2216 2034 2216 
z
M 1403 2484 
Q 997 2584 770 2862 
Q 544 3141 544 3541 
Q 544 4100 942 4425 
Q 1341 4750 2034 4750 
Q 2731 4750 3128 4425 
Q 3525 4100 3525 3541 
Q 3525 3141 3298 2862 
Q 3072 2584 2669 2484 
Q 3125 2378 3379 2068 
Q 3634 1759 3634 1313 
Q 3634 634 3220 271 
Q 2806 -91 2034 -91 
Q 1263 -91 848 271 
Q 434 634 434 1313 
Q 434 1759 690 2068 
Q 947 2378 1403 2484 
z
M 1172 3481 
Q 1172 3119 1398 2916 
Q 1625 2713 2034 2713 
Q 2441 2713 2670 2916 
Q 2900 3119 2900 3481 
Q 2900 3844 2670 4047 
Q 2441 4250 2034 4250 
Q 1625 4250 1398 4047 
Q 1172 3844 1172 3481 
z
" transform="scale(0.015625)"/>
       </defs>
       <use xlink:href="#DejaVuSans-1b"/>
       <use xlink:href="#DejaVuSans-13" transform="translate(63.625 0)"/>
       <use xlink:href="#DejaVuSans-13" transform="translate(127.25 0)"/>
      </g>
     </g>
    </g>
    <g id="ytick_10">
     <g id="line2d_56">
      <path d="M 53.650781 189.201714 
L 501.660995 189.201714 
" clip-path="url(#pa615d7b844)" style="fill: none; stroke: #b0b0b0; stroke-opacity: 0.22; stroke-width: 0.8; stroke-linecap: square"/>
     </g>
     <g id="line2d_57">
      <g>
       <use xlink:href="#ma3802a4e71" x="53.650781" y="189.201714" style="stroke: #000000; stroke-width: 0.8"/>
      </g>
     </g>
     <g id="text_11">
      <!-- 1000 -->
      <g transform="translate(21.200781 193.000543) scale(0.1 -0.1)">
       <use xlink:href="#DejaVuSans-14"/>
       <use xlink:href="#DejaVuSans-13" transform="translate(63.625 0)"/>
       <use xlink:href="#DejaVuSans-13" transform="translate(127.25 0)"/>
       <use xlink:href="#DejaVuSans-13" transform="translate(190.875 0)"/>
      </g>
     </g>
    </g>
    <g id="text_12">
     <!-- Qd Score -->
     <g transform="translate(14.798438 283.441652) rotate(-90) scale(0.1 -0.1)">
      <defs>
       <path id="DejaVuSans-34" d="M 2522 4238 
Q 1834 4238 1429 3725 
Q 1025 3213 1025 2328 
Q 1025 1447 1429 934 
Q 1834 422 2522 422 
Q 3209 422 3611 934 
Q 4013 1447 4013 2328 
Q 4013 3213 3611 3725 
Q 3209 4238 2522 4238 
z
M 3406 84 
L 4238 -825 
L 3475 -825 
L 2784 -78 
Q 2681 -84 2626 -87 
Q 2572 -91 2522 -91 
Q 1538 -91 948 567 
Q 359 1225 359 2328 
Q 359 3434 948 4092 
Q 1538 4750 2522 4750 
Q 3503 4750 4090 4092 
Q 4678 3434 4678 2328 
Q 4678 1516 4351 937 
Q 4025 359 3406 84 
z
" transform="scale(0.015625)"/>
       <path id="DejaVuSans-47" d="M 2906 2969 
L 2906 4863 
L 3481 4863 
L 3481 0 
L 2906 0 
L 2906 525 
Q 2725 213 2448 61 
Q 2172 -91 1784 -91 
Q 1150 -91 751 415 
Q 353 922 353 1747 
Q 353 2572 751 3078 
Q 1150 3584 1784 3584 
Q 2172 3584 2448 3432 
Q 2725 3281 2906 2969 
z
M 947 1747 
Q 947 1113 1208 752 
Q 1469 391 1925 391 
Q 2381 391 2643 752 
Q 2906 1113 2906 1747 
Q 2906 2381 2643 2742 
Q 2381 3103 1925 3103 
Q 1469 3103 1208 2742 
Q 947 2381 947 1747 
z
" transform="scale(0.015625)"/>
       <path id="DejaVuSans-3" transform="scale(0.015625)"/>
       <path id="DejaVuSans-36" d="M 3425 4513 
L 3425 3897 
Q 3066 4069 2747 4153 
Q 2428 4238 2131 4238 
Q 1616 4238 1336 4038 
Q 1056 3838 1056 3469 
Q 1056 3159 1242 3001 
Q 1428 2844 1947 2747 
L 2328 2669 
Q 3034 2534 3370 2195 
Q 3706 1856 3706 1288 
Q 3706 609 3251 259 
Q 2797 -91 1919 -91 
Q 1588 -91 1214 -16 
Q 841 59 441 206 
L 441 856 
Q 825 641 1194 531 
Q 1563 422 1919 422 
Q 2459 422 2753 634 
Q 3047 847 3047 1241 
Q 3047 1584 2836 1778 
Q 2625 1972 2144 2069 
L 1759 2144 
Q 1053 2284 737 2584 
Q 422 2884 422 3419 
Q 422 4038 858 4394 
Q 1294 4750 2059 4750 
Q 2388 4750 2728 4690 
Q 3069 4631 3425 4513 
z
" transform="scale(0.015625)"/>
       <path id="DejaVuSans-46" d="M 3122 3366 
L 3122 2828 
Q 2878 2963 2633 3030 
Q 2388 3097 2138 3097 
Q 1578 3097 1268 2742 
Q 959 2388 959 1747 
Q 959 1106 1268 751 
Q 1578 397 2138 397 
Q 2388 397 2633 464 
Q 2878 531 3122 666 
L 3122 134 
Q 2881 22 2623 -34 
Q 2366 -91 2075 -91 
Q 1284 -91 818 406 
Q 353 903 353 1747 
Q 353 2603 823 3093 
Q 1294 3584 2113 3584 
Q 2378 3584 2631 3529 
Q 2884 3475 3122 3366 
z
" transform="scale(0.015625)"/>
      </defs>
      <use xlink:href="#DejaVuSans-34"/>
      <use xlink:href="#DejaVuSans-47" transform="translate(78.71875 0)"/>
      <use xlink:href="#DejaVuSans-3" transform="translate(142.203125 0)"/>
      <use xlink:href="#DejaVuSans-36" transform="translate(173.984375 0)"/>
      <use xlink:href="#DejaVuSans-46" transform="translate(237.46875 0)"/>
      <use xlink:href="#DejaVuSans-52" transform="translate(292.453125 0)"/>
      <use xlink:href="#DejaVuSans-55" transform="translate(353.640625 0)"/>
      <use xlink:href="#DejaVuSans-48" transform="translate(392.546875 0)"/>
     </g>
    </g>
   </g>
   <g id="line2d_58">
    <path d="M 74.014882 326.330091 
L 75.057858 321.228981 
L 76.100833 314.161849 
L 76.622321 310.266421 
L 78.186785 303.860968 
L 78.708273 302.684402 
L 79.22976 300.66936 
L 80.272736 297.721503 
L 80.794224 296.016093 
L 81.315712 294.971383 
L 81.8372 293.500924 
L 82.880175 291.7875 
L 83.401663 291.2817 
L 83.923151 290.486378 
L 84.444639 289.053316 
L 84.966127 288.38631 
L 86.009102 286.416687 
L 87.573566 285.388782 
L 88.616542 284.291273 
L 89.13803 283.163645 
L 89.659517 282.479034 
L 90.181005 280.691925 
L 90.702493 279.499251 
L 91.223981 279.009659 
L 91.745469 278.185505 
L 92.266957 276.888066 
L 93.309932 275.975072 
L 93.83142 275.179042 
L 94.352908 274.015009 
L 94.874396 273.17486 
L 95.395884 272.682742 
L 95.917372 271.76968 
L 96.438859 271.343749 
L 99.567787 264.756356 
L 100.089274 263.013918 
L 100.610762 262.547864 
L 101.13225 261.435287 
L 102.696714 255.971482 
L 103.218202 255.206938 
L 103.739689 255.028492 
L 104.261177 253.722138 
L 105.304153 252.532933 
L 105.825641 251.852008 
L 106.347129 250.551016 
L 106.868617 249.977482 
L 107.390104 249.121498 
L 107.911592 248.044375 
L 108.43308 247.542826 
L 108.954568 245.534583 
L 109.476056 245.359644 
L 110.519032 244.420164 
L 111.040519 243.959952 
L 112.083495 242.074826 
L 112.604983 241.619604 
L 113.126471 240.767817 
L 113.647959 240.354282 
L 114.169446 238.909557 
L 114.690934 238.530606 
L 115.212422 238.444465 
L 115.73391 237.455137 
L 116.776886 236.683742 
L 118.862837 234.066366 
L 119.384325 232.899484 
L 119.905813 232.531693 
L 120.427301 231.569047 
L 120.948789 231.345337 
L 121.991764 229.94737 
L 122.513252 229.83812 
L 123.03474 229.576119 
L 123.556228 228.923147 
L 124.077716 228.027672 
L 125.120691 227.363356 
L 125.642179 226.667169 
L 126.163667 226.328821 
L 127.206643 226.20649 
L 127.728131 225.862688 
L 130.857058 224.705643 
L 131.378546 224.640923 
L 131.900033 224.053818 
L 132.943009 224.010185 
L 133.985985 223.251249 
L 134.507473 223.120505 
L 135.550448 222.419304 
L 136.593424 222.274488 
L 137.114912 221.763701 
L 138.157888 221.453095 
L 139.200863 219.95506 
L 139.722351 219.891824 
L 140.243839 219.533749 
L 140.765327 219.510049 
L 142.32979 219.144583 
L 142.851278 219.130822 
L 143.894254 218.688748 
L 144.415742 218.63038 
L 144.93723 218.398034 
L 145.458718 217.590356 
L 145.980205 217.416916 
L 147.544669 217.171003 
L 148.587645 216.838978 
L 149.63062 216.499791 
L 152.759548 216.092823 
L 155.366987 215.692975 
L 155.888475 215.405737 
L 156.93145 215.354116 
L 157.452938 215.152411 
L 158.495914 215.144292 
L 159.017402 214.988507 
L 160.060377 214.964045 
L 160.581865 214.751453 
L 162.146329 214.613808 
L 163.189305 214.525319 
L 163.710792 214.28142 
L 164.753768 214.162533 
L 165.275256 213.881079 
L 165.796744 213.874439 
L 166.318232 213.60735 
L 168.925671 213.319847 
L 170.490134 212.921342 
L 171.011622 212.921258 
L 174.140549 212.299125 
L 176.747989 212.143275 
L 177.269477 211.93169 
L 177.790964 211.93169 
L 178.312452 211.79344 
L 180.398404 211.701344 
L 181.441379 211.506075 
L 185.091794 211.40995 
L 187.177746 211.161286 
L 187.699234 211.019868 
L 188.220721 210.750316 
L 189.785185 210.640763 
L 192.392624 210.449129 
L 193.4356 210.415503 
L 194.478576 210.206735 
L 196.043039 210.158721 
L 197.607503 210.069621 
L 198.128991 209.913356 
L 200.73643 209.897851 
L 201.779406 209.72239 
L 203.343869 209.719832 
L 204.908333 209.414966 
L 208.03726 209.30423 
L 209.080236 209.197002 
L 210.123211 209.184418 
L 211.166187 208.825767 
L 213.252138 208.784485 
L 213.773626 208.499727 
L 219.509993 208.302868 
L 220.552968 208.037475 
L 221.595944 208.033147 
L 222.117432 207.851564 
L 225.246359 207.777358 
L 225.767847 207.618073 
L 226.810822 207.594011 
L 227.33231 207.157786 
L 229.418262 207.068464 
L 230.461237 206.931091 
L 235.676116 206.738521 
L 237.762067 206.41868 
L 238.283555 206.41868 
L 238.805043 206.269626 
L 239.848019 206.206932 
L 240.890994 206.027952 
L 241.412482 205.668996 
L 242.455458 205.657397 
L 242.976946 205.411039 
L 245.062897 205.263264 
L 248.191824 205.157123 
L 251.320752 205.042518 
L 253.928191 204.952915 
L 257.057118 204.716611 
L 257.578606 204.487532 
L 258.100094 204.487532 
L 258.621581 204.285413 
L 262.271996 204.270061 
L 262.793484 204.128055 
L 265.400924 204.009287 
L 271.13729 203.934866 
L 272.701753 203.931611 
L 273.223241 203.765565 
L 273.744729 203.765565 
L 274.266217 203.513799 
L 275.830681 203.471453 
L 280.524071 203.403915 
L 282.088535 203.275343 
L 283.652998 203.173336 
L 284.695974 203.098668 
L 285.217462 203.098564 
L 285.73895 202.965805 
L 287.303413 202.965805 
L 287.824901 202.729641 
L 289.910853 202.625867 
L 295.125731 202.516085 
L 296.168707 202.467435 
L 296.690195 202.344168 
L 299.819122 202.263502 
L 300.34061 202.104979 
L 301.905073 202.09778 
L 302.426561 201.916475 
L 307.119952 201.807786 
L 308.162927 201.747254 
L 310.248879 201.724736 
L 310.770367 201.561636 
L 314.942269 201.472432 
L 318.592684 201.365572 
L 319.114172 201.223723 
L 323.807563 201.139217 
L 325.372026 200.856615 
L 325.893514 200.856615 
L 326.415002 200.680554 
L 329.022441 200.575771 
L 331.629881 200.5032 
L 348.317492 200.264964 
L 351.446419 200.178265 
L 355.096834 200.097319 
L 357.182785 199.66804 
L 361.876176 199.584186 
L 364.483615 199.440581 
L 366.048079 199.356463 
L 369.177006 199.21044 
L 371.262957 199.146598 
L 372.305933 198.94248 
L 378.0423 198.836097 
L 380.128251 198.806314 
L 384.300154 198.78549 
L 384.821642 198.584833 
L 385.864617 198.584833 
L 386.386105 198.391209 
L 389.515032 198.357686 
L 390.03652 198.240273 
L 391.079496 198.238057 
L 391.600984 198.051239 
L 393.165447 197.981494 
L 393.686935 197.816097 
L 399.423301 197.672471 
L 402.030741 197.645928 
L 403.595204 197.550021 
L 404.116692 197.315358 
L 410.896034 197.204501 
L 412.981986 197.175448 
L 417.153888 197.067465 
L 423.411743 196.91313 
L 428.105133 196.904553 
L 428.626621 196.605988 
L 431.755548 196.604937 
L 432.277036 196.419569 
L 438.53489 196.346958 
L 439.056378 196.130445 
L 448.964647 196.041302 
L 450.007623 195.977539 
L 453.658038 195.874245 
L 455.743989 195.732533 
L 456.265477 195.732533 
L 456.786965 195.521297 
L 466.173747 195.483632 
L 466.695234 195.336647 
L 480.775406 195.265977 
L 481.296894 195.1454 
L 481.296894 195.1454 
" clip-path="url(#pa615d7b844)" style="fill: none; stroke: #1f77b4; stroke-width: 1.8; stroke-linecap: square"/>
   </g>
   <g id="patch_8">
    <path d="M 53.650781 332.889326 
L 53.650781 188.586165 
" style="fill: none; stroke: #000000; stroke-width: 0.8; stroke-linejoin: miter; stroke-linecap: square"/>
   </g>
   <g id="patch_9">
    <path d="M 501.660995 332.889326 
L 501.660995 188.586165 
" style="fill: none; stroke: #000000; stroke-width: 0.8; stroke-linejoin: miter; stroke-linecap: square"/>
   </g>
   <g id="patch_10">
    <path d="M 53.650781 332.889326 
L 501.660995 332.889326 
" style="fill: none; stroke: #000000; stroke-width: 0.8; stroke-linejoin: miter; stroke-linecap: square"/>
   </g>
   <g id="patch_11">
    <path d="M 53.650781 188.586165 
L 501.660995 188.586165 
" style="fill: none; stroke: #000000; stroke-width: 0.8; stroke-linejoin: miter; stroke-linecap: square"/>
   </g>
  </g>
  <g id="axes_3">
   <g id="patch_12">
    <path d="M 53.650781 494.787491 
L 501.660995 494.787491 
L 501.660995 350.48433 
L 53.650781 350.48433 
z
" style="fill: #ffffff"/>
   </g>
   <g id="matplotlib.axis_5">
    <g id="xtick_19">
     <g id="line2d_59">
      <path d="M 73.493394 494.787491 
L 73.493394 350.48433 
" clip-path="url(#p34e5d5388e)" style="fill: none; stroke: #b0b0b0; stroke-opacity: 0.22; stroke-width: 0.8; stroke-linecap: square"/>
     </g>
     <g id="line2d_60">
      <g>
       <use xlink:href="#m33ca78faab" x="73.493394" y="494.787491" style="stroke: #000000; stroke-width: 0.8"/>
      </g>
     </g>
    </g>
    <g id="xtick_20">
     <g id="line2d_61">
      <path d="M 124.419942 494.787491 
L 124.419942 350.48433 
" clip-path="url(#p34e5d5388e)" style="fill: none; stroke: #b0b0b0; stroke-opacity: 0.22; stroke-width: 0.8; stroke-linecap: square"/>
     </g>
     <g id="line2d_62">
      <g>
       <use xlink:href="#m33ca78faab" x="124.419942" y="494.787491" style="stroke: #000000; stroke-width: 0.8"/>
      </g>
     </g>
    </g>
    <g id="xtick_21">
     <g id="line2d_63">
      <path d="M 175.34649 494.787491 
L 175.34649 350.48433 
" clip-path="url(#p34e5d5388e)" style="fill: none; stroke: #b0b0b0; stroke-opacity: 0.22; stroke-width: 0.8; stroke-linecap: square"/>
     </g>
     <g id="line2d_64">
      <g>
       <use xlink:href="#m33ca78faab" x="175.34649" y="494.787491" style="stroke: #000000; stroke-width: 0.8"/>
      </g>
     </g>
    </g>
    <g id="xtick_22">
     <g id="line2d_65">
      <path d="M 226.273038 494.787491 
L 226.273038 350.48433 
" clip-path="url(#p34e5d5388e)" style="fill: none; stroke: #b0b0b0; stroke-opacity: 0.22; stroke-width: 0.8; stroke-linecap: square"/>
     </g>
     <g id="line2d_66">
      <g>
       <use xlink:href="#m33ca78faab" x="226.273038" y="494.787491" style="stroke: #000000; stroke-width: 0.8"/>
      </g>
     </g>
    </g>
    <g id="xtick_23">
     <g id="line2d_67">
      <path d="M 277.199586 494.787491 
L 277.199586 350.48433 
" clip-path="url(#p34e5d5388e)" style="fill: none; stroke: #b0b0b0; stroke-opacity: 0.22; stroke-width: 0.8; stroke-linecap: square"/>
     </g>
     <g id="line2d_68">
      <g>
       <use xlink:href="#m33ca78faab" x="277.199586" y="494.787491" style="stroke: #000000; stroke-width: 0.8"/>
      </g>
     </g>
    </g>
    <g id="xtick_24">
     <g id="line2d_69">
      <path d="M 328.126134 494.787491 
L 328.126134 350.48433 
" clip-path="url(#p34e5d5388e)" style="fill: none; stroke: #b0b0b0; stroke-opacity: 0.22; stroke-width: 0.8; stroke-linecap: square"/>
     </g>
     <g id="line2d_70">
      <g>
       <use xlink:href="#m33ca78faab" x="328.126134" y="494.787491" style="stroke: #000000; stroke-width: 0.8"/>
      </g>
     </g>
    </g>
    <g id="xtick_25">
     <g id="line2d_71">
      <path d="M 379.052682 494.787491 
L 379.052682 350.48433 
" clip-path="url(#p34e5d5388e)" style="fill: none; stroke: #b0b0b0; stroke-opacity: 0.22; stroke-width: 0.8; stroke-linecap: square"/>
     </g>
     <g id="line2d_72">
      <g>
       <use xlink:href="#m33ca78faab" x="379.052682" y="494.787491" style="stroke: #000000; stroke-width: 0.8"/>
      </g>
     </g>
    </g>
    <g id="xtick_26">
     <g id="line2d_73">
      <path d="M 429.97923 494.787491 
L 429.97923 350.48433 
" clip-path="url(#p34e5d5388e)" style="fill: none; stroke: #b0b0b0; stroke-opacity: 0.22; stroke-width: 0.8; stroke-linecap: square"/>
     </g>
     <g id="line2d_74">
      <g>
       <use xlink:href="#m33ca78faab" x="429.97923" y="494.787491" style="stroke: #000000; stroke-width: 0.8"/>
      </g>
     </g>
    </g>
    <g id="xtick_27">
     <g id="line2d_75">
      <path d="M 480.905778 494.787491 
L 480.905778 350.48433 
" clip-path="url(#p34e5d5388e)" style="fill: none; stroke: #b0b0b0; stroke-opacity: 0.22; stroke-width: 0.8; stroke-linecap: square"/>
     </g>
     <g id="line2d_76">
      <g>
       <use xlink:href="#m33ca78faab" x="480.905778" y="494.787491" style="stroke: #000000; stroke-width: 0.8"/>
      </g>
     </g>
    </g>
   </g>
   <g id="matplotlib.axis_6">
    <g id="ytick_11">
     <g id="line2d_77">
      <path d="M 53.650781 474.928241 
L 501.660995 474.928241 
" clip-path="url(#p34e5d5388e)" style="fill: none; stroke: #b0b0b0; stroke-opacity: 0.22; stroke-width: 0.8; stroke-linecap: square"/>
     </g>
     <g id="line2d_78">
      <g>
       <use xlink:href="#ma3802a4e71" x="53.650781" y="474.928241" style="stroke: #000000; stroke-width: 0.8"/>
      </g>
     </g>
     <g id="text_13">
      <!-- 0.1 -->
      <g transform="translate(30.747656 478.727069) scale(0.1 -0.1)">
       <use xlink:href="#DejaVuSans-13"/>
       <use xlink:href="#DejaVuSans-11" transform="translate(63.625 0)"/>
       <use xlink:href="#DejaVuSans-14" transform="translate(95.40625 0)"/>
      </g>
     </g>
    </g>
    <g id="ytick_12">
     <g id="line2d_79">
      <path d="M 53.650781 450.847904 
L 501.660995 450.847904 
" clip-path="url(#p34e5d5388e)" style="fill: none; stroke: #b0b0b0; stroke-opacity: 0.22; stroke-width: 0.8; stroke-linecap: square"/>
     </g>
     <g id="line2d_80">
      <g>
       <use xlink:href="#ma3802a4e71" x="53.650781" y="450.847904" style="stroke: #000000; stroke-width: 0.8"/>
      </g>
     </g>
     <g id="text_14">
      <!-- 0.2 -->
      <g transform="translate(30.747656 454.646732) scale(0.1 -0.1)">
       <use xlink:href="#DejaVuSans-13"/>
       <use xlink:href="#DejaVuSans-11" transform="translate(63.625 0)"/>
       <use xlink:href="#DejaVuSans-15" transform="translate(95.40625 0)"/>
      </g>
     </g>
    </g>
    <g id="ytick_13">
     <g id="line2d_81">
      <path d="M 53.650781 426.767567 
L 501.660995 426.767567 
" clip-path="url(#p34e5d5388e)" style="fill: none; stroke: #b0b0b0; stroke-opacity: 0.22; stroke-width: 0.8; stroke-linecap: square"/>
     </g>
     <g id="line2d_82">
      <g>
       <use xlink:href="#ma3802a4e71" x="53.650781" y="426.767567" style="stroke: #000000; stroke-width: 0.8"/>
      </g>
     </g>
     <g id="text_15">
      <!-- 0.3 -->
      <g transform="translate(30.747656 430.566396) scale(0.1 -0.1)">
       <use xlink:href="#DejaVuSans-13"/>
       <use xlink:href="#DejaVuSans-11" transform="translate(63.625 0)"/>
       <use xlink:href="#DejaVuSans-16" transform="translate(95.40625 0)"/>
      </g>
     </g>
    </g>
    <g id="ytick_14">
     <g id="line2d_83">
      <path d="M 53.650781 402.687231 
L 501.660995 402.687231 
" clip-path="url(#p34e5d5388e)" style="fill: none; stroke: #b0b0b0; stroke-opacity: 0.22; stroke-width: 0.8; stroke-linecap: square"/>
     </g>
     <g id="line2d_84">
      <g>
       <use xlink:href="#ma3802a4e71" x="53.650781" y="402.687231" style="stroke: #000000; stroke-width: 0.8"/>
      </g>
     </g>
     <g id="text_16">
      <!-- 0.4 -->
      <g transform="translate(30.747656 406.486059) scale(0.1 -0.1)">
       <use xlink:href="#DejaVuSans-13"/>
       <use xlink:href="#DejaVuSans-11" transform="translate(63.625 0)"/>
       <use xlink:href="#DejaVuSans-17" transform="translate(95.40625 0)"/>
      </g>
     </g>
    </g>
    <g id="ytick_15">
     <g id="line2d_85">
      <path d="M 53.650781 378.606894 
L 501.660995 378.606894 
" clip-path="url(#p34e5d5388e)" style="fill: none; stroke: #b0b0b0; stroke-opacity: 0.22; stroke-width: 0.8; stroke-linecap: square"/>
     </g>
     <g id="line2d_86">
      <g>
       <use xlink:href="#ma3802a4e71" x="53.650781" y="378.606894" style="stroke: #000000; stroke-width: 0.8"/>
      </g>
     </g>
     <g id="text_17">
      <!-- 0.5 -->
      <g transform="translate(30.747656 382.405722) scale(0.1 -0.1)">
       <defs>
        <path id="DejaVuSans-18" d="M 691 4666 
L 3169 4666 
L 3169 4134 
L 1269 4134 
L 1269 2991 
Q 1406 3038 1543 3061 
Q 1681 3084 1819 3084 
Q 2600 3084 3056 2656 
Q 3513 2228 3513 1497 
Q 3513 744 3044 326 
Q 2575 -91 1722 -91 
Q 1428 -91 1123 -41 
Q 819 9 494 109 
L 494 744 
Q 775 591 1075 516 
Q 1375 441 1709 441 
Q 2250 441 2565 725 
Q 2881 1009 2881 1497 
Q 2881 1984 2565 2268 
Q 2250 2553 1709 2553 
Q 1456 2553 1204 2497 
Q 953 2441 691 2322 
L 691 4666 
z
" transform="scale(0.015625)"/>
       </defs>
       <use xlink:href="#DejaVuSans-13"/>
       <use xlink:href="#DejaVuSans-11" transform="translate(63.625 0)"/>
       <use xlink:href="#DejaVuSans-18" transform="translate(95.40625 0)"/>
      </g>
     </g>
    </g>
    <g id="ytick_16">
     <g id="line2d_87">
      <path d="M 53.650781 354.526558 
L 501.660995 354.526558 
" clip-path="url(#p34e5d5388e)" style="fill: none; stroke: #b0b0b0; stroke-opacity: 0.22; stroke-width: 0.8; stroke-linecap: square"/>
     </g>
     <g id="line2d_88">
      <g>
       <use xlink:href="#ma3802a4e71" x="53.650781" y="354.526558" style="stroke: #000000; stroke-width: 0.8"/>
      </g>
     </g>
     <g id="text_18">
      <!-- 0.6 -->
      <g transform="translate(30.747656 358.325386) scale(0.1 -0.1)">
       <use xlink:href="#DejaVuSans-13"/>
       <use xlink:href="#DejaVuSans-11" transform="translate(63.625 0)"/>
       <use xlink:href="#DejaVuSans-19" transform="translate(95.40625 0)"/>
      </g>
     </g>
    </g>
    <g id="text_19">
     <!-- Best Quality -->
     <g transform="translate(24.345313 453.163254) rotate(-90) scale(0.1 -0.1)">
      <defs>
       <path id="DejaVuSans-25" d="M 1259 2228 
L 1259 519 
L 2272 519 
Q 2781 519 3026 730 
Q 3272 941 3272 1375 
Q 3272 1813 3026 2020 
Q 2781 2228 2272 2228 
L 1259 2228 
z
M 1259 4147 
L 1259 2741 
L 2194 2741 
Q 2656 2741 2882 2914 
Q 3109 3088 3109 3444 
Q 3109 3797 2882 3972 
Q 2656 4147 2194 4147 
L 1259 4147 
z
M 628 4666 
L 2241 4666 
Q 2963 4666 3353 4366 
Q 3744 4066 3744 3513 
Q 3744 3084 3544 2831 
Q 3344 2578 2956 2516 
Q 3422 2416 3680 2098 
Q 3938 1781 3938 1306 
Q 3938 681 3513 340 
Q 3088 0 2303 0 
L 628 0 
L 628 4666 
z
" transform="scale(0.015625)"/>
       <path id="DejaVuSans-56" d="M 2834 3397 
L 2834 2853 
Q 2591 2978 2328 3040 
Q 2066 3103 1784 3103 
Q 1356 3103 1142 2972 
Q 928 2841 928 2578 
Q 928 2378 1081 2264 
Q 1234 2150 1697 2047 
L 1894 2003 
Q 2506 1872 2764 1633 
Q 3022 1394 3022 966 
Q 3022 478 2636 193 
Q 2250 -91 1575 -91 
Q 1294 -91 989 -36 
Q 684 19 347 128 
L 347 722 
Q 666 556 975 473 
Q 1284 391 1588 391 
Q 1994 391 2212 530 
Q 2431 669 2431 922 
Q 2431 1156 2273 1281 
Q 2116 1406 1581 1522 
L 1381 1569 
Q 847 1681 609 1914 
Q 372 2147 372 2553 
Q 372 3047 722 3315 
Q 1072 3584 1716 3584 
Q 2034 3584 2315 3537 
Q 2597 3491 2834 3397 
z
" transform="scale(0.015625)"/>
       <path id="DejaVuSans-57" d="M 1172 4494 
L 1172 3500 
L 2356 3500 
L 2356 3053 
L 1172 3053 
L 1172 1153 
Q 1172 725 1289 603 
Q 1406 481 1766 481 
L 2356 481 
L 2356 0 
L 1766 0 
Q 1100 0 847 248 
Q 594 497 594 1153 
L 594 3053 
L 172 3053 
L 172 3500 
L 594 3500 
L 594 4494 
L 1172 4494 
z
" transform="scale(0.015625)"/>
       <path id="DejaVuSans-58" d="M 544 1381 
L 544 3500 
L 1119 3500 
L 1119 1403 
Q 1119 906 1312 657 
Q 1506 409 1894 409 
Q 2359 409 2629 706 
Q 2900 1003 2900 1516 
L 2900 3500 
L 3475 3500 
L 3475 0 
L 2900 0 
L 2900 538 
Q 2691 219 2414 64 
Q 2138 -91 1772 -91 
Q 1169 -91 856 284 
Q 544 659 544 1381 
z
M 1991 3584 
L 1991 3584 
z
" transform="scale(0.015625)"/>
       <path id="DejaVuSans-4f" d="M 603 4863 
L 1178 4863 
L 1178 0 
L 603 0 
L 603 4863 
z
" transform="scale(0.015625)"/>
       <path id="DejaVuSans-4c" d="M 603 3500 
L 1178 3500 
L 1178 0 
L 603 0 
L 603 3500 
z
M 603 4863 
L 1178 4863 
L 1178 4134 
L 603 4134 
L 603 4863 
z
" transform="scale(0.015625)"/>
       <path id="DejaVuSans-5c" d="M 2059 -325 
Q 1816 -950 1584 -1140 
Q 1353 -1331 966 -1331 
L 506 -1331 
L 506 -850 
L 844 -850 
Q 1081 -850 1212 -737 
Q 1344 -625 1503 -206 
L 1606 56 
L 191 3500 
L 800 3500 
L 1894 763 
L 2988 3500 
L 3597 3500 
L 2059 -325 
z
" transform="scale(0.015625)"/>
      </defs>
      <use xlink:href="#DejaVuSans-25"/>
      <use xlink:href="#DejaVuSans-48" transform="translate(68.609375 0)"/>
      <use xlink:href="#DejaVuSans-56" transform="translate(130.140625 0)"/>
      <use xlink:href="#DejaVuSans-57" transform="translate(182.234375 0)"/>
      <use xlink:href="#DejaVuSans-3" transform="translate(221.4375 0)"/>
      <use xlink:href="#DejaVuSans-34" transform="translate(253.21875 0)"/>
      <use xlink:href="#DejaVuSans-58" transform="translate(331.9375 0)"/>
      <use xlink:href="#DejaVuSans-44" transform="translate(395.3125 0)"/>
      <use xlink:href="#DejaVuSans-4f" transform="translate(456.59375 0)"/>
      <use xlink:href="#DejaVuSans-4c" transform="translate(484.375 0)"/>
      <use xlink:href="#DejaVuSans-57" transform="translate(512.15625 0)"/>
      <use xlink:href="#DejaVuSans-5c" transform="translate(551.359375 0)"/>
     </g>
    </g>
   </g>
   <g id="line2d_89">
    <path d="M 74.014882 357.043565 
L 74.53637 427.849488 
L 75.057858 427.849488 
L 75.579345 448.257755 
L 76.100833 449.770449 
L 77.143809 449.770449 
L 77.665297 453.822789 
L 78.708273 453.822789 
L 79.22976 455.02938 
L 80.272736 455.02938 
L 80.794224 455.346556 
L 82.880175 455.346556 
L 83.401663 455.648541 
L 83.923151 455.648541 
L 84.444639 460.745183 
L 88.616542 460.745183 
L 89.13803 461.310335 
L 90.181005 461.310335 
L 90.702493 467.714382 
L 93.83142 467.714382 
L 94.352908 470.470643 
L 94.874396 470.924021 
L 95.395884 470.924021 
L 95.917372 475.114332 
L 96.438859 475.114332 
L 96.960347 476.204065 
L 97.481835 479.016064 
L 99.046299 479.016064 
L 99.567787 481.73557 
L 101.653738 481.73557 
L 102.175226 483.012038 
L 113.647959 483.098738 
L 114.169446 483.654951 
L 125.120691 483.654951 
L 125.642179 483.976887 
L 138.679376 483.976887 
L 139.200863 484.212027 
L 139.722351 484.212027 
L 140.243839 484.331811 
L 175.183525 484.331811 
L 175.705013 484.46144 
L 177.790964 484.46144 
L 178.312452 485.121521 
L 238.283555 485.121521 
L 238.805043 485.771357 
L 358.225761 485.771357 
L 358.747249 485.909824 
L 391.079496 485.909824 
L 391.600984 486.614825 
L 403.595204 486.614825 
L 404.116692 486.964906 
L 415.589425 486.964906 
L 416.110913 487.393526 
L 456.265477 487.446234 
L 456.786965 488.228256 
L 481.296894 488.228256 
L 481.296894 488.228256 
" clip-path="url(#p34e5d5388e)" style="fill: none; stroke: #1f77b4; stroke-width: 1.8; stroke-linecap: square"/>
   </g>
   <g id="patch_13">
    <path d="M 53.650781 494.787491 
L 53.650781 350.48433 
" style="fill: none; stroke: #000000; stroke-width: 0.8; stroke-linejoin: miter; stroke-linecap: square"/>
   </g>
   <g id="patch_14">
    <path d="M 501.660995 494.787491 
L 501.660995 350.48433 
" style="fill: none; stroke: #000000; stroke-width: 0.8; stroke-linejoin: miter; stroke-linecap: square"/>
   </g>
   <g id="patch_15">
    <path d="M 53.650781 494.787491 
L 501.660995 494.787491 
" style="fill: none; stroke: #000000; stroke-width: 0.8; stroke-linejoin: miter; stroke-linecap: square"/>
   </g>
   <g id="patch_16">
    <path d="M 53.650781 350.48433 
L 501.660995 350.48433 
" style="fill: none; stroke: #000000; stroke-width: 0.8; stroke-linejoin: miter; stroke-linecap: square"/>
   </g>
  </g>
  <g id="axes_4">
   <g id="patch_17">
    <path d="M 53.650781 656.685656 
L 501.660995 656.685656 
L 501.660995 512.382496 
L 53.650781 512.382496 
z
" style="fill: #ffffff"/>
   </g>
   <g id="matplotlib.axis_7">
    <g id="xtick_28">
     <g id="line2d_90">
      <path d="M 73.493394 656.685656 
L 73.493394 512.382496 
" clip-path="url(#p8466cf606c)" style="fill: none; stroke: #b0b0b0; stroke-opacity: 0.22; stroke-width: 0.8; stroke-linecap: square"/>
     </g>
     <g id="line2d_91">
      <g>
       <use xlink:href="#m33ca78faab" x="73.493394" y="656.685656" style="stroke: #000000; stroke-width: 0.8"/>
      </g>
     </g>
     <g id="text_20">
      <!-- 0 -->
      <g transform="translate(70.312144 671.283312) scale(0.1 -0.1)">
       <use xlink:href="#DejaVuSans-13"/>
      </g>
     </g>
    </g>
    <g id="xtick_29">
     <g id="line2d_92">
      <path d="M 124.419942 656.685656 
L 124.419942 512.382496 
" clip-path="url(#p8466cf606c)" style="fill: none; stroke: #b0b0b0; stroke-opacity: 0.22; stroke-width: 0.8; stroke-linecap: square"/>
     </g>
     <g id="line2d_93">
      <g>
       <use xlink:href="#m33ca78faab" x="124.419942" y="656.685656" style="stroke: #000000; stroke-width: 0.8"/>
      </g>
     </g>
     <g id="text_21">
      <!-- 25000 -->
      <g transform="translate(108.513692 671.283312) scale(0.1 -0.1)">
       <use xlink:href="#DejaVuSans-15"/>
       <use xlink:href="#DejaVuSans-18" transform="translate(63.625 0)"/>
       <use xlink:href="#DejaVuSans-13" transform="translate(127.25 0)"/>
       <use xlink:href="#DejaVuSans-13" transform="translate(190.875 0)"/>
       <use xlink:href="#DejaVuSans-13" transform="translate(254.5 0)"/>
      </g>
     </g>
    </g>
    <g id="xtick_30">
     <g id="line2d_94">
      <path d="M 175.34649 656.685656 
L 175.34649 512.382496 
" clip-path="url(#p8466cf606c)" style="fill: none; stroke: #b0b0b0; stroke-opacity: 0.22; stroke-width: 0.8; stroke-linecap: square"/>
     </g>
     <g id="line2d_95">
      <g>
       <use xlink:href="#m33ca78faab" x="175.34649" y="656.685656" style="stroke: #000000; stroke-width: 0.8"/>
      </g>
     </g>
     <g id="text_22">
      <!-- 50000 -->
      <g transform="translate(159.44024 671.283312) scale(0.1 -0.1)">
       <use xlink:href="#DejaVuSans-18"/>
       <use xlink:href="#DejaVuSans-13" transform="translate(63.625 0)"/>
       <use xlink:href="#DejaVuSans-13" transform="translate(127.25 0)"/>
       <use xlink:href="#DejaVuSans-13" transform="translate(190.875 0)"/>
       <use xlink:href="#DejaVuSans-13" transform="translate(254.5 0)"/>
      </g>
     </g>
    </g>
    <g id="xtick_31">
     <g id="line2d_96">
      <path d="M 226.273038 656.685656 
L 226.273038 512.382496 
" clip-path="url(#p8466cf606c)" style="fill: none; stroke: #b0b0b0; stroke-opacity: 0.22; stroke-width: 0.8; stroke-linecap: square"/>
     </g>
     <g id="line2d_97">
      <g>
       <use xlink:href="#m33ca78faab" x="226.273038" y="656.685656" style="stroke: #000000; stroke-width: 0.8"/>
      </g>
     </g>
     <g id="text_23">
      <!-- 75000 -->
      <g transform="translate(210.366788 671.283312) scale(0.1 -0.1)">
       <defs>
        <path id="DejaVuSans-1a" d="M 525 4666 
L 3525 4666 
L 3525 4397 
L 1831 0 
L 1172 0 
L 2766 4134 
L 525 4134 
L 525 4666 
z
" transform="scale(0.015625)"/>
       </defs>
       <use xlink:href="#DejaVuSans-1a"/>
       <use xlink:href="#DejaVuSans-18" transform="translate(63.625 0)"/>
       <use xlink:href="#DejaVuSans-13" transform="translate(127.25 0)"/>
       <use xlink:href="#DejaVuSans-13" transform="translate(190.875 0)"/>
       <use xlink:href="#DejaVuSans-13" transform="translate(254.5 0)"/>
      </g>
     </g>
    </g>
    <g id="xtick_32">
     <g id="line2d_98">
      <path d="M 277.199586 656.685656 
L 277.199586 512.382496 
" clip-path="url(#p8466cf606c)" style="fill: none; stroke: #b0b0b0; stroke-opacity: 0.22; stroke-width: 0.8; stroke-linecap: square"/>
     </g>
     <g id="line2d_99">
      <g>
       <use xlink:href="#m33ca78faab" x="277.199586" y="656.685656" style="stroke: #000000; stroke-width: 0.8"/>
      </g>
     </g>
     <g id="text_24">
      <!-- 100000 -->
      <g transform="translate(258.112086 671.283312) scale(0.1 -0.1)">
       <use xlink:href="#DejaVuSans-14"/>
       <use xlink:href="#DejaVuSans-13" transform="translate(63.625 0)"/>
       <use xlink:href="#DejaVuSans-13" transform="translate(127.25 0)"/>
       <use xlink:href="#DejaVuSans-13" transform="translate(190.875 0)"/>
       <use xlink:href="#DejaVuSans-13" transform="translate(254.5 0)"/>
       <use xlink:href="#DejaVuSans-13" transform="translate(318.125 0)"/>
      </g>
     </g>
    </g>
    <g id="xtick_33">
     <g id="line2d_100">
      <path d="M 328.126134 656.685656 
L 328.126134 512.382496 
" clip-path="url(#p8466cf606c)" style="fill: none; stroke: #b0b0b0; stroke-opacity: 0.22; stroke-width: 0.8; stroke-linecap: square"/>
     </g>
     <g id="line2d_101">
      <g>
       <use xlink:href="#m33ca78faab" x="328.126134" y="656.685656" style="stroke: #000000; stroke-width: 0.8"/>
      </g>
     </g>
     <g id="text_25">
      <!-- 125000 -->
      <g transform="translate(309.038634 671.283312) scale(0.1 -0.1)">
       <use xlink:href="#DejaVuSans-14"/>
       <use xlink:href="#DejaVuSans-15" transform="translate(63.625 0)"/>
       <use xlink:href="#DejaVuSans-18" transform="translate(127.25 0)"/>
       <use xlink:href="#DejaVuSans-13" transform="translate(190.875 0)"/>
       <use xlink:href="#DejaVuSans-13" transform="translate(254.5 0)"/>
       <use xlink:href="#DejaVuSans-13" transform="translate(318.125 0)"/>
      </g>
     </g>
    </g>
    <g id="xtick_34">
     <g id="line2d_102">
      <path d="M 379.052682 656.685656 
L 379.052682 512.382496 
" clip-path="url(#p8466cf606c)" style="fill: none; stroke: #b0b0b0; stroke-opacity: 0.22; stroke-width: 0.8; stroke-linecap: square"/>
     </g>
     <g id="line2d_103">
      <g>
       <use xlink:href="#m33ca78faab" x="379.052682" y="656.685656" style="stroke: #000000; stroke-width: 0.8"/>
      </g>
     </g>
     <g id="text_26">
      <!-- 150000 -->
      <g transform="translate(359.965182 671.283312) scale(0.1 -0.1)">
       <use xlink:href="#DejaVuSans-14"/>
       <use xlink:href="#DejaVuSans-18" transform="translate(63.625 0)"/>
       <use xlink:href="#DejaVuSans-13" transform="translate(127.25 0)"/>
       <use xlink:href="#DejaVuSans-13" transform="translate(190.875 0)"/>
       <use xlink:href="#DejaVuSans-13" transform="translate(254.5 0)"/>
       <use xlink:href="#DejaVuSans-13" transform="translate(318.125 0)"/>
      </g>
     </g>
    </g>
    <g id="xtick_35">
     <g id="line2d_104">
      <path d="M 429.97923 656.685656 
L 429.97923 512.382496 
" clip-path="url(#p8466cf606c)" style="fill: none; stroke: #b0b0b0; stroke-opacity: 0.22; stroke-width: 0.8; stroke-linecap: square"/>
     </g>
     <g id="line2d_105">
      <g>
       <use xlink:href="#m33ca78faab" x="429.97923" y="656.685656" style="stroke: #000000; stroke-width: 0.8"/>
      </g>
     </g>
     <g id="text_27">
      <!-- 175000 -->
      <g transform="translate(410.89173 671.283312) scale(0.1 -0.1)">
       <use xlink:href="#DejaVuSans-14"/>
       <use xlink:href="#DejaVuSans-1a" transform="translate(63.625 0)"/>
       <use xlink:href="#DejaVuSans-18" transform="translate(127.25 0)"/>
       <use xlink:href="#DejaVuSans-13" transform="translate(190.875 0)"/>
       <use xlink:href="#DejaVuSans-13" transform="translate(254.5 0)"/>
       <use xlink:href="#DejaVuSans-13" transform="translate(318.125 0)"/>
      </g>
     </g>
    </g>
    <g id="xtick_36">
     <g id="line2d_106">
      <path d="M 480.905778 656.685656 
L 480.905778 512.382496 
" clip-path="url(#p8466cf606c)" style="fill: none; stroke: #b0b0b0; stroke-opacity: 0.22; stroke-width: 0.8; stroke-linecap: square"/>
     </g>
     <g id="line2d_107">
      <g>
       <use xlink:href="#m33ca78faab" x="480.905778" y="656.685656" style="stroke: #000000; stroke-width: 0.8"/>
      </g>
     </g>
     <g id="text_28">
      <!-- 200000 -->
      <g transform="translate(461.818278 671.283312) scale(0.1 -0.1)">
       <use xlink:href="#DejaVuSans-15"/>
       <use xlink:href="#DejaVuSans-13" transform="translate(63.625 0)"/>
       <use xlink:href="#DejaVuSans-13" transform="translate(127.25 0)"/>
       <use xlink:href="#DejaVuSans-13" transform="translate(190.875 0)"/>
       <use xlink:href="#DejaVuSans-13" transform="translate(254.5 0)"/>
       <use xlink:href="#DejaVuSans-13" transform="translate(318.125 0)"/>
      </g>
     </g>
    </g>
    <g id="text_29">
     <!-- Evaluations -->
     <g transform="translate(248.669169 685.284094) scale(0.1 -0.1)">
      <defs>
       <path id="DejaVuSans-28" d="M 628 4666 
L 3578 4666 
L 3578 4134 
L 1259 4134 
L 1259 2753 
L 3481 2753 
L 3481 2222 
L 1259 2222 
L 1259 531 
L 3634 531 
L 3634 0 
L 628 0 
L 628 4666 
z
" transform="scale(0.015625)"/>
       <path id="DejaVuSans-51" d="M 3513 2113 
L 3513 0 
L 2938 0 
L 2938 2094 
Q 2938 2591 2744 2837 
Q 2550 3084 2163 3084 
Q 1697 3084 1428 2787 
Q 1159 2491 1159 1978 
L 1159 0 
L 581 0 
L 581 3500 
L 1159 3500 
L 1159 2956 
Q 1366 3272 1645 3428 
Q 1925 3584 2291 3584 
Q 2894 3584 3203 3211 
Q 3513 2838 3513 2113 
z
" transform="scale(0.015625)"/>
      </defs>
      <use xlink:href="#DejaVuSans-28"/>
      <use xlink:href="#DejaVuSans-59" transform="translate(63.1875 0)"/>
      <use xlink:href="#DejaVuSans-44" transform="translate(122.375 0)"/>
      <use xlink:href="#DejaVuSans-4f" transform="translate(183.65625 0)"/>
      <use xlink:href="#DejaVuSans-58" transform="translate(211.4375 0)"/>
      <use xlink:href="#DejaVuSans-44" transform="translate(274.8125 0)"/>
      <use xlink:href="#DejaVuSans-57" transform="translate(336.09375 0)"/>
      <use xlink:href="#DejaVuSans-4c" transform="translate(375.296875 0)"/>
      <use xlink:href="#DejaVuSans-52" transform="translate(403.078125 0)"/>
      <use xlink:href="#DejaVuSans-51" transform="translate(464.265625 0)"/>
      <use xlink:href="#DejaVuSans-56" transform="translate(527.640625 0)"/>
     </g>
    </g>
   </g>
   <g id="matplotlib.axis_8">
    <g id="ytick_17">
     <g id="line2d_108">
      <path d="M 53.650781 650.42554 
L 501.660995 650.42554 
" clip-path="url(#p8466cf606c)" style="fill: none; stroke: #b0b0b0; stroke-opacity: 0.22; stroke-width: 0.8; stroke-linecap: square"/>
     </g>
     <g id="line2d_109">
      <g>
       <use xlink:href="#ma3802a4e71" x="53.650781" y="650.42554" style="stroke: #000000; stroke-width: 0.8"/>
      </g>
     </g>
     <g id="text_30">
      <!-- 0.2 -->
      <g transform="translate(30.747656 654.224368) scale(0.1 -0.1)">
       <use xlink:href="#DejaVuSans-13"/>
       <use xlink:href="#DejaVuSans-11" transform="translate(63.625 0)"/>
       <use xlink:href="#DejaVuSans-15" transform="translate(95.40625 0)"/>
      </g>
     </g>
    </g>
    <g id="ytick_18">
     <g id="line2d_110">
      <path d="M 53.650781 627.179783 
L 501.660995 627.179783 
" clip-path="url(#p8466cf606c)" style="fill: none; stroke: #b0b0b0; stroke-opacity: 0.22; stroke-width: 0.8; stroke-linecap: square"/>
     </g>
     <g id="line2d_111">
      <g>
       <use xlink:href="#ma3802a4e71" x="53.650781" y="627.179783" style="stroke: #000000; stroke-width: 0.8"/>
      </g>
     </g>
     <g id="text_31">
      <!-- 0.3 -->
      <g transform="translate(30.747656 630.978612) scale(0.1 -0.1)">
       <use xlink:href="#DejaVuSans-13"/>
       <use xlink:href="#DejaVuSans-11" transform="translate(63.625 0)"/>
       <use xlink:href="#DejaVuSans-16" transform="translate(95.40625 0)"/>
      </g>
     </g>
    </g>
    <g id="ytick_19">
     <g id="line2d_112">
      <path d="M 53.650781 603.934027 
L 501.660995 603.934027 
" clip-path="url(#p8466cf606c)" style="fill: none; stroke: #b0b0b0; stroke-opacity: 0.22; stroke-width: 0.8; stroke-linecap: square"/>
     </g>
     <g id="line2d_113">
      <g>
       <use xlink:href="#ma3802a4e71" x="53.650781" y="603.934027" style="stroke: #000000; stroke-width: 0.8"/>
      </g>
     </g>
     <g id="text_32">
      <!-- 0.4 -->
      <g transform="translate(30.747656 607.732855) scale(0.1 -0.1)">
       <use xlink:href="#DejaVuSans-13"/>
       <use xlink:href="#DejaVuSans-11" transform="translate(63.625 0)"/>
       <use xlink:href="#DejaVuSans-17" transform="translate(95.40625 0)"/>
      </g>
     </g>
    </g>
    <g id="ytick_20">
     <g id="line2d_114">
      <path d="M 53.650781 580.688271 
L 501.660995 580.688271 
" clip-path="url(#p8466cf606c)" style="fill: none; stroke: #b0b0b0; stroke-opacity: 0.22; stroke-width: 0.8; stroke-linecap: square"/>
     </g>
     <g id="line2d_115">
      <g>
       <use xlink:href="#ma3802a4e71" x="53.650781" y="580.688271" style="stroke: #000000; stroke-width: 0.8"/>
      </g>
     </g>
     <g id="text_33">
      <!-- 0.5 -->
      <g transform="translate(30.747656 584.487099) scale(0.1 -0.1)">
       <use xlink:href="#DejaVuSans-13"/>
       <use xlink:href="#DejaVuSans-11" transform="translate(63.625 0)"/>
       <use xlink:href="#DejaVuSans-18" transform="translate(95.40625 0)"/>
      </g>
     </g>
    </g>
    <g id="ytick_21">
     <g id="line2d_116">
      <path d="M 53.650781 557.442514 
L 501.660995 557.442514 
" clip-path="url(#p8466cf606c)" style="fill: none; stroke: #b0b0b0; stroke-opacity: 0.22; stroke-width: 0.8; stroke-linecap: square"/>
     </g>
     <g id="line2d_117">
      <g>
       <use xlink:href="#ma3802a4e71" x="53.650781" y="557.442514" style="stroke: #000000; stroke-width: 0.8"/>
      </g>
     </g>
     <g id="text_34">
      <!-- 0.6 -->
      <g transform="translate(30.747656 561.241342) scale(0.1 -0.1)">
       <use xlink:href="#DejaVuSans-13"/>
       <use xlink:href="#DejaVuSans-11" transform="translate(63.625 0)"/>
       <use xlink:href="#DejaVuSans-19" transform="translate(95.40625 0)"/>
      </g>
     </g>
    </g>
    <g id="ytick_22">
     <g id="line2d_118">
      <path d="M 53.650781 534.196758 
L 501.660995 534.196758 
" clip-path="url(#p8466cf606c)" style="fill: none; stroke: #b0b0b0; stroke-opacity: 0.22; stroke-width: 0.8; stroke-linecap: square"/>
     </g>
     <g id="line2d_119">
      <g>
       <use xlink:href="#ma3802a4e71" x="53.650781" y="534.196758" style="stroke: #000000; stroke-width: 0.8"/>
      </g>
     </g>
     <g id="text_35">
      <!-- 0.7 -->
      <g transform="translate(30.747656 537.995586) scale(0.1 -0.1)">
       <use xlink:href="#DejaVuSans-13"/>
       <use xlink:href="#DejaVuSans-11" transform="translate(63.625 0)"/>
       <use xlink:href="#DejaVuSans-1a" transform="translate(95.40625 0)"/>
      </g>
     </g>
    </g>
    <g id="text_36">
     <!-- Invalid Fraction -->
     <g transform="translate(24.345313 622.700482) rotate(-90) scale(0.1 -0.1)">
      <defs>
       <path id="DejaVuSans-2c" d="M 628 4666 
L 1259 4666 
L 1259 0 
L 628 0 
L 628 4666 
z
" transform="scale(0.015625)"/>
       <path id="DejaVuSans-29" d="M 628 4666 
L 3309 4666 
L 3309 4134 
L 1259 4134 
L 1259 2759 
L 3109 2759 
L 3109 2228 
L 1259 2228 
L 1259 0 
L 628 0 
L 628 4666 
z
" transform="scale(0.015625)"/>
      </defs>
      <use xlink:href="#DejaVuSans-2c"/>
      <use xlink:href="#DejaVuSans-51" transform="translate(29.5 0)"/>
      <use xlink:href="#DejaVuSans-59" transform="translate(92.875 0)"/>
      <use xlink:href="#DejaVuSans-44" transform="translate(152.0625 0)"/>
      <use xlink:href="#DejaVuSans-4f" transform="translate(213.34375 0)"/>
      <use xlink:href="#DejaVuSans-4c" transform="translate(241.125 0)"/>
      <use xlink:href="#DejaVuSans-47" transform="translate(268.90625 0)"/>
      <use xlink:href="#DejaVuSans-3" transform="translate(332.390625 0)"/>
      <use xlink:href="#DejaVuSans-29" transform="translate(364.171875 0)"/>
      <use xlink:href="#DejaVuSans-55" transform="translate(414.40625 0)"/>
      <use xlink:href="#DejaVuSans-44" transform="translate(455.515625 0)"/>
      <use xlink:href="#DejaVuSans-46" transform="translate(516.796875 0)"/>
      <use xlink:href="#DejaVuSans-57" transform="translate(571.78125 0)"/>
      <use xlink:href="#DejaVuSans-4c" transform="translate(610.984375 0)"/>
      <use xlink:href="#DejaVuSans-52" transform="translate(638.765625 0)"/>
      <use xlink:href="#DejaVuSans-51" transform="translate(699.953125 0)"/>
     </g>
    </g>
   </g>
   <g id="line2d_120">
    <path d="M 74.014882 518.94173 
L 74.53637 582.958364 
L 75.057858 607.021354 
L 75.579345 618.371821 
L 76.622321 627.149516 
L 77.665297 634.602989 
L 78.186785 635.977657 
L 78.708273 636.895783 
L 79.22976 638.22482 
L 79.751248 640.089048 
L 80.272736 640.828283 
L 80.794224 640.683596 
L 81.8372 642.945582 
L 82.880175 644.149993 
L 83.401663 644.250886 
L 86.009102 646.634484 
L 87.052078 646.765451 
L 87.573566 646.605057 
L 88.095054 646.974998 
L 89.13803 647.247409 
L 90.181005 648.081668 
L 91.223981 648.123398 
L 91.745469 648.012755 
L 92.266957 648.210938 
L 93.83142 648.348695 
L 94.874396 648.525306 
L 95.395884 648.726213 
L 95.917372 648.706604 
L 96.438859 648.852984 
L 96.960347 648.83143 
L 98.524811 649.585605 
L 99.046299 649.69911 
L 100.089274 649.592282 
L 102.175226 649.73213 
L 103.218202 649.953998 
L 103.739689 649.714766 
L 104.261177 649.822234 
L 105.304153 649.803311 
L 107.390104 649.964536 
L 107.911592 649.932998 
L 108.954568 650.126422 
L 109.997544 649.919633 
L 110.519032 649.801424 
L 111.562007 649.860815 
L 112.083495 649.735922 
L 112.604983 649.820182 
L 113.126471 649.782745 
L 114.690934 649.963475 
L 116.776886 649.808512 
L 118.862837 649.709547 
L 119.384325 649.833252 
L 120.948789 649.659196 
L 121.991764 649.396431 
L 123.556228 649.188339 
L 126.685155 649.093752 
L 127.728131 649.149049 
L 134.507473 648.666897 
L 135.028961 648.598692 
L 135.550448 648.646092 
L 136.593424 648.453373 
L 138.679376 648.238986 
L 141.808303 647.77213 
L 142.851278 647.726006 
L 147.544669 647.160442 
L 150.152108 646.993529 
L 151.195084 646.956715 
L 153.281035 646.773212 
L 156.409962 646.421038 
L 159.017402 646.238602 
L 160.060377 646.170893 
L 161.103353 646.018316 
L 162.667817 645.928896 
L 163.710792 645.825517 
L 165.796744 645.738631 
L 176.226501 644.933066 
L 178.312452 644.878832 
L 183.005843 644.627073 
L 210.123211 643.516138 
L 213.773626 643.410361 
L 216.902553 643.270205 
L 224.203383 643.082063 
L 226.810822 642.922804 
L 227.853798 642.925642 
L 229.93975 642.882776 
L 244.019922 642.543109 
L 250.799264 642.498908 
L 252.363727 642.426869 
L 269.051338 641.919046 
L 271.658778 641.875651 
L 282.610023 641.585649 
L 284.174486 641.582964 
L 287.303413 641.491338 
L 291.475316 641.435536 
L 294.082755 641.367921 
L 300.862097 641.27269 
L 313.377806 640.942471 
L 317.028221 640.924008 
L 325.372026 640.823656 
L 329.022441 640.746603 
L 330.586905 640.688727 
L 334.758808 640.664048 
L 339.452198 640.540396 
L 416.632401 639.40158 
L 433.8415 639.154838 
L 440.099354 639.05841 
L 444.271257 639.032545 
L 448.44316 639.069137 
L 451.572087 639.019338 
L 463.044819 638.878028 
L 477.124991 638.69121 
L 481.296894 638.698156 
L 481.296894 638.698156 
" clip-path="url(#p8466cf606c)" style="fill: none; stroke: #1f77b4; stroke-width: 1.8; stroke-linecap: square"/>
   </g>
   <g id="patch_18">
    <path d="M 53.650781 656.685656 
L 53.650781 512.382496 
" style="fill: none; stroke: #000000; stroke-width: 0.8; stroke-linejoin: miter; stroke-linecap: square"/>
   </g>
   <g id="patch_19">
    <path d="M 501.660995 656.685656 
L 501.660995 512.382496 
" style="fill: none; stroke: #000000; stroke-width: 0.8; stroke-linejoin: miter; stroke-linecap: square"/>
   </g>
   <g id="patch_20">
    <path d="M 53.650781 656.685656 
L 501.660995 656.685656 
" style="fill: none; stroke: #000000; stroke-width: 0.8; stroke-linejoin: miter; stroke-linecap: square"/>
   </g>
   <g id="patch_21">
    <path d="M 53.650781 512.382496 
L 501.660995 512.382496 
" style="fill: none; stroke: #000000; stroke-width: 0.8; stroke-linejoin: miter; stroke-linecap: square"/>
   </g>
  </g>
  <g id="text_37">
   <!-- rapier-trebuchet: qd convergence -->
   <g transform="translate(153.62875 16.318125) scale(0.12 -0.12)">
    <defs>
     <path id="DejaVuSans-53" d="M 1159 525 
L 1159 -1331 
L 581 -1331 
L 581 3500 
L 1159 3500 
L 1159 2969 
Q 1341 3281 1617 3432 
Q 1894 3584 2278 3584 
Q 2916 3584 3314 3078 
Q 3713 2572 3713 1747 
Q 3713 922 3314 415 
Q 2916 -91 2278 -91 
Q 1894 -91 1617 61 
Q 1341 213 1159 525 
z
M 3116 1747 
Q 3116 2381 2855 2742 
Q 2594 3103 2138 3103 
Q 1681 3103 1420 2742 
Q 1159 2381 1159 1747 
Q 1159 1113 1420 752 
Q 1681 391 2138 391 
Q 2594 391 2855 752 
Q 3116 1113 3116 1747 
z
" transform="scale(0.015625)"/>
     <path id="DejaVuSans-10" d="M 313 2009 
L 1997 2009 
L 1997 1497 
L 313 1497 
L 313 2009 
z
" transform="scale(0.015625)"/>
     <path id="DejaVuSans-45" d="M 3116 1747 
Q 3116 2381 2855 2742 
Q 2594 3103 2138 3103 
Q 1681 3103 1420 2742 
Q 1159 2381 1159 1747 
Q 1159 1113 1420 752 
Q 1681 391 2138 391 
Q 2594 391 2855 752 
Q 3116 1113 3116 1747 
z
M 1159 2969 
Q 1341 3281 1617 3432 
Q 1894 3584 2278 3584 
Q 2916 3584 3314 3078 
Q 3713 2572 3713 1747 
Q 3713 922 3314 415 
Q 2916 -91 2278 -91 
Q 1894 -91 1617 61 
Q 1341 213 1159 525 
L 1159 0 
L 581 0 
L 581 4863 
L 1159 4863 
L 1159 2969 
z
" transform="scale(0.015625)"/>
     <path id="DejaVuSans-4b" d="M 3513 2113 
L 3513 0 
L 2938 0 
L 2938 2094 
Q 2938 2591 2744 2837 
Q 2550 3084 2163 3084 
Q 1697 3084 1428 2787 
Q 1159 2491 1159 1978 
L 1159 0 
L 581 0 
L 581 4863 
L 1159 4863 
L 1159 2956 
Q 1366 3272 1645 3428 
Q 1925 3584 2291 3584 
Q 2894 3584 3203 3211 
Q 3513 2838 3513 2113 
z
" transform="scale(0.015625)"/>
     <path id="DejaVuSans-1d" d="M 750 794 
L 1409 794 
L 1409 0 
L 750 0 
L 750 794 
z
M 750 3309 
L 1409 3309 
L 1409 2516 
L 750 2516 
L 750 3309 
z
" transform="scale(0.015625)"/>
     <path id="DejaVuSans-54" d="M 947 1747 
Q 947 1113 1208 752 
Q 1469 391 1925 391 
Q 2381 391 2643 752 
Q 2906 1113 2906 1747 
Q 2906 2381 2643 2742 
Q 2381 3103 1925 3103 
Q 1469 3103 1208 2742 
Q 947 2381 947 1747 
z
M 2906 525 
Q 2725 213 2448 61 
Q 2172 -91 1784 -91 
Q 1150 -91 751 415 
Q 353 922 353 1747 
Q 353 2572 751 3078 
Q 1150 3584 1784 3584 
Q 2172 3584 2448 3432 
Q 2725 3281 2906 2969 
L 2906 3500 
L 3481 3500 
L 3481 -1331 
L 2906 -1331 
L 2906 525 
z
" transform="scale(0.015625)"/>
    </defs>
    <use xlink:href="#DejaVuSans-55"/>
    <use xlink:href="#DejaVuSans-44" transform="translate(41.109375 0)"/>
    <use xlink:href="#DejaVuSans-53" transform="translate(102.390625 0)"/>
    <use xlink:href="#DejaVuSans-4c" transform="translate(165.875 0)"/>
    <use xlink:href="#DejaVuSans-48" transform="translate(193.65625 0)"/>
    <use xlink:href="#DejaVuSans-55" transform="translate(255.1875 0)"/>
    <use xlink:href="#DejaVuSans-10" transform="translate(289.90625 0)"/>
    <use xlink:href="#DejaVuSans-57" transform="translate(325.984375 0)"/>
    <use xlink:href="#DejaVuSans-55" transform="translate(365.1875 0)"/>
    <use xlink:href="#DejaVuSans-48" transform="translate(404.09375 0)"/>
    <use xlink:href="#DejaVuSans-45" transform="translate(465.625 0)"/>
    <use xlink:href="#DejaVuSans-58" transform="translate(529.109375 0)"/>
    <use xlink:href="#DejaVuSans-46" transform="translate(592.484375 0)"/>
    <use xlink:href="#DejaVuSans-4b" transform="translate(647.46875 0)"/>
    <use xlink:href="#DejaVuSans-48" transform="translate(710.84375 0)"/>
    <use xlink:href="#DejaVuSans-57" transform="translate(772.375 0)"/>
    <use xlink:href="#DejaVuSans-1d" transform="translate(811.578125 0)"/>
    <use xlink:href="#DejaVuSans-3" transform="translate(845.265625 0)"/>
    <use xlink:href="#DejaVuSans-54" transform="translate(877.046875 0)"/>
    <use xlink:href="#DejaVuSans-47" transform="translate(940.53125 0)"/>
    <use xlink:href="#DejaVuSans-3" transform="translate(1004.015625 0)"/>
    <use xlink:href="#DejaVuSans-46" transform="translate(1035.796875 0)"/>
    <use xlink:href="#DejaVuSans-52" transform="translate(1090.78125 0)"/>
    <use xlink:href="#DejaVuSans-51" transform="translate(1151.96875 0)"/>
    <use xlink:href="#DejaVuSans-59" transform="translate(1215.34375 0)"/>
    <use xlink:href="#DejaVuSans-48" transform="translate(1274.53125 0)"/>
    <use xlink:href="#DejaVuSans-55" transform="translate(1336.0625 0)"/>
    <use xlink:href="#DejaVuSans-4a" transform="translate(1375.421875 0)"/>
    <use xlink:href="#DejaVuSans-48" transform="translate(1438.90625 0)"/>
    <use xlink:href="#DejaVuSans-51" transform="translate(1500.4375 0)"/>
    <use xlink:href="#DejaVuSans-46" transform="translate(1563.8125 0)"/>
    <use xlink:href="#DejaVuSans-48" transform="translate(1618.796875 0)"/>
   </g>
  </g>
 </g>
 <defs>
  <clipPath id="p9eaa8fe677">
   <rect x="53.650781" y="26.688" width="448.010214" height="144.303161"/>
  </clipPath>
  <clipPath id="pa615d7b844">
   <rect x="53.650781" y="188.586165" width="448.010214" height="144.303161"/>
  </clipPath>
  <clipPath id="p34e5d5388e">
   <rect x="53.650781" y="350.48433" width="448.010214" height="144.303161"/>
  </clipPath>
  <clipPath id="p8466cf606c">
   <rect x="53.650781" y="512.382496" width="448.010214" height="144.303161"/>
  </clipPath>
 </defs>
</svg>
